<svg xmlns="http://www.w3.org/2000/svg" xmlns:xlink="http://www.w3.org/1999/xlink" viewBox="0 0 351.54 368.62"><defs><style>.cls-1{fill:none;}.cls-2{clip-path:url(#clip-path);}.cls-3{fill:#831619;}</style><clipPath id="clip-path" transform="translate(0 -11.73)"><rect class="cls-1" x="157.6" width="537.1" height="389.19"/></clipPath></defs><title>Recurso 7</title><g id="Capa_2" data-name="Capa 2"><g id="Layer_1" data-name="Layer 1"><g class="cls-2"><path class="cls-3" d="M214.9,184.38a1.46,1.46,0,0,1-1.17,1.35c-.61.08-1.1-.63-1.2-1.3a.78.78,0,0,1,1.19-.68C214.39,183.8,214.88,184.16,214.9,184.38Z" transform="translate(0 -11.73)"/><path class="cls-3" d="M182.93,271.5l-1.07.62c-.53,1.94-1.92,4.88-6.2,7.11a7.38,7.38,0,0,0,6.06-4.39c-.11.47-1,5.08-6.54,12.73,0,0,.15,1.25,1.16.23A26.64,26.64,0,0,0,182.93,271.5Z" transform="translate(0 -11.73)"/><path class="cls-3" d="M231.63,278.73c.44-.47-.85.4-.28.15a4.06,4.06,0,0,1,1.3-.26c1.72-.09,3.43.92,4.83,1.84l1.07-.66c-2.32-1.54-5.69-2.84-8-.43Z" transform="translate(0 -11.73)"/><path class="cls-3" d="M243.77,288.1a5,5,0,0,0,3.23,1.21l1-.64a4.89,4.89,0,0,1-3.22-1.22Z" transform="translate(0 -11.73)"/><path class="cls-3" d="M277.2,138.27c0-.54-.36-.65-.8-.24-6.14,5.86-17,6-24.52,3.5a1.37,1.37,0,0,0-1.49.54C258.84,144.75,272.58,145.6,277.2,138.27Z" transform="translate(0 -11.73)"/><path class="cls-3" d="M251.05,139.66c-1.65-.23-1.26.52-1.26.52a15.62,15.62,0,0,0,5.44.91,13.05,13.05,0,0,0,7.65-.14c-1.12,0-3,0-4.5-.13,4.43-.83,10.32-3.19,12.41-5.85C268.67,137.66,256.78,140.49,251.05,139.66Z" transform="translate(0 -11.73)"/><path class="cls-3" d="M176.53,129.24l-.15-.06Z" transform="translate(0 -11.73)"/><path class="cls-3" d="M187.6,134.56c-2.61-3.88-8.65-4.69-11.07-5.32A54.69,54.69,0,0,1,187.6,134.56Z" transform="translate(0 -11.73)"/><path class="cls-3" d="M231.88,151.17c1.21.66,2.17-1,2.16-2.12,0-.81-1-2.2-2.24-2-1.21.54-2.21,1-2.19,2.85A1.53,1.53,0,0,0,231.88,151.17Z" transform="translate(0 -11.73)"/><path class="cls-3" d="M221.49,104.28a4.68,4.68,0,0,1-2.09,0c2,2.63,3.81.72,3.81.72C224.13,103.76,221.49,104.28,221.49,104.28Z" transform="translate(0 -11.73)"/><path class="cls-3" d="M205.59,109l-.72.6s-1.19-.35-.36,1c0,0,1.22,2,2.14,1.67,0,0,.83-.21-.17-1C206.48,111.16,206.71,109.38,205.59,109Z" transform="translate(0 -11.73)"/><path class="cls-3" d="M29,196.92c-1.55-1.31-9.84-1.75-11.9-1.93s-7-.56-7.35-.57a2,2,0,0,1-1.55-.61c-.3-.43-.3-.74-.88-.82l-.87.43h0v0c-.44.31-.27,1.14-.28,1.59,0,1.14,0,2.2-.1,3.31,0,.76.5.81,1,.62,0,0,1.37-1.4,2.29-1.38,3.77.09,14.62.17,16.17.63,2.69.76,3,4.75,1.15,6.5l0,.09a9.45,9.45,0,0,1-1.9.44c-4.81,0-9.58-.06-14.37-.07a2.11,2.11,0,0,1-1.56-.58c-.4-.36-.79-.85-1.32-.58v0l-.07.07-.46.28c-.87.69-.4,2.54-.38,3.56,0,.7-.28,5.32.59,5.63.48.2,1.34-1.05,1.7-1.52,1.18-.36,8.77-.38,11.18-.45,2.95-.13,6.58.11,9-1.84,1.77-1.37,1.64-3.73,1.64-5.74C30.64,201.52,30.91,198.63,29,196.92ZM7.63,198.16l.34-.34,0,0ZM25.85,211a8,8,0,0,0,2.38-.81A5.6,5.6,0,0,1,25.85,211Z" transform="translate(0 -11.73)"/><polyline class="cls-3" points="249.11 26.09 249.07 26.14 249.11 26.14 249.11 26.09"/><path class="cls-3" d="M28.84,172.14c-.4,0-5.05-.8-7-1.12-3.49-.61-7-1-10.46-1.81a1.61,1.61,0,0,1-1.2-1c-.2-.44-.72-1.4-1.28-1.08h0l-.49.32.09,0v0C8,168,8,168.77,7.8,169.73c-.15,1.12-.28,2.25-.43,3.37-.08.6.12,1.28.76.92v0l.08-.08.44-.28c.36-.24.6-.6,1-.72s8.85.68,8.33,1c.48-.28-6.13,3.77-8.17,5.05a15.5,15.5,0,0,0-2.93,1.88c-.6.56-.88,4.37-1,5.37-.36,1.76.68,1.48.68,1.48l2.13-1.48a4.32,4.32,0,0,1,2.48-.16c4.17.28,16.14,1.16,16.38,1.48l.41.84c.07,1.24,1,1.36,1,1.36.89.32.93-1.32,1-2a26.69,26.69,0,0,0,.36-4.69c-.08-.76-1.16-.08-1.16-.08s-.37,1.28-1,1.41a7.7,7.7,0,0,1-2.36,0c-1.48-.16-10.41-1-10.77-1.8,3-1.8,15.7-9.37,15.7-9.37h0l.16-.16c1-.8-1.8-1-2-1m-20,1.28L9,173.3l.72-.4-.88.52" transform="translate(0 -11.73)"/><polyline class="cls-3" points="8.56 174.51 8 174.91 8.56 174.51"/><path class="cls-3" d="M264.66,68a11.06,11.06,0,0,1-3.61,2.85h0c-.1.09-1,.77,1,1.84a14.53,14.53,0,0,1,2.76,2.07c1.75,1.64,2-.18,2.11-.62.24-1.34.06-2.68.88-3.84,2.18-3.27,4.39-6.54,6.57-9.81.3,0,.12,2,.07,2.65-.24,2.29-1.47,14.07-1.8,17.63a1.91,1.91,0,0,0,2,2.19l.63-.47c.63-1.1.66-2.6,1.33-3.76a13.63,13.63,0,0,1,.9-1.14q4.21-5,8.39-10a4.62,4.62,0,0,1,2.81-2l1.5-.57c.3-.29.38-.67-.13-1.25-1.09-1.21-2.67-1.95-3.57-3.34a2.41,2.41,0,0,0-1.07-.79c-.08.07-1.44-.23-.89,1.61a5.32,5.32,0,0,1-.79,3.81c-1.25,1.79-2.45,3.58-3.66,5.37-.49-.71.42-8.6.57-11,.09-1.47.59-3.6-.56-4.74-.74-.75-4.09-3.32-4.95-3.49l-.81.39a2.49,2.49,0,0,0-.18,1.37,10.41,10.41,0,0,1-.3,2.28,6.49,6.49,0,0,1-1.31,2.54C271.27,59.32,266.06,66.19,264.66,68Z" transform="translate(0 -11.73)"/><polyline class="cls-3" points="11.29 149.47 11.21 149.47 11.13 149.51 11.29 149.47"/><path class="cls-3" d="M32.7,165.2a27.82,27.82,0,0,1,.7-3.66c.13-.6.45-1.17.59-1.78.3-1.19-.29-1.24-.85-1a7.25,7.25,0,0,1-4.51.28c-2.36-.59-12.56-2.65-14.42-4.24-.6-.54-1.67-2.31-2.55-2v0s-.42-.24-1.11,3.16a55.13,55.13,0,0,0-.92,5.44c0,.73.46.58.73.5.68-.18.79-.94,1.48-.89s14.17,2.49,17,3.78a11.52,11.52,0,0,1,2.57,2.36C32.09,167.77,32.63,165.73,32.7,165.2Zm-21.58-4,.19-.14Z" transform="translate(0 -11.73)"/><path class="cls-3" d="M317.66,142.59c-1.09.81,17.33.68,16.95.83s-21.87-.33-21.23,1.21a23.73,23.73,0,0,1,1,3.41c.18.64.85,3.6,1.69,3.1s1.24-1.63,2.12-2.31c.53-.25,1.09-.48,1.62-.73,0,0,12.64-4.83,14.8-5.45.65-.17,1,.38,1.6.27,0,.06,1.11.15.36-2-.42-1.15-.82-2.31-1.16-3.49-.23-.94-.13-3.26-1.56-2.51v0l-1.07,1.14a26.61,26.61,0,0,1-2.69,1.59Zm.07,6.51.27-.18h0Zm.35-.24-.06.06Z" transform="translate(0 -11.73)"/><path class="cls-3" d="M63.57,64.71a3.26,3.26,0,0,1,2,1.32c3.33,3.35,7.06,6.64,9.72,10.62a11.19,11.19,0,0,1,1.53,3.74c.39,2,1.84.39,1.84.36v0a38.43,38.43,0,0,1,5-4c.28-.19,1.35-1.12.34-1.68h0a4.61,4.61,0,0,1-3-1.32c-2.5-2.86-9.65-10.77-10.49-12-.72-1.06-.76-2.34-1.29-3.5L68.57,58l0,0A27.1,27.1,0,0,0,62.81,63c-.31.36-.69.6-.8,1.11S63.33,64.67,63.57,64.71Z" transform="translate(0 -11.73)"/><path class="cls-3" d="M280.68,85.8a8.56,8.56,0,0,0,4.48,8.36c4.47,2.43,9.78-1.18,12.9-4.3a17.2,17.2,0,0,0,4.84-8.41c.63-3.66-1.68-7-4.62-8.69-4.65-2.69-10,1.11-13.19,4.39A15,15,0,0,0,280.68,85.8ZM290.52,80c1.32-1.21,8.69-8,9.2-3,.16,1.66-1.43,3.48-2.32,4.67-1.52,2-3.3,3.76-5,5.57-.54.53-1.14,1.22-1.77,1.85A16.33,16.33,0,0,1,289,90.44a4.11,4.11,0,0,1-1.55.65c-1.34.22-2.55-1.12-3-2.24-.59-1.42.43-2.93,1.2-4A38.19,38.19,0,0,1,290.52,80Z" transform="translate(0 -11.73)"/><path class="cls-3" d="M33.76,102.8c1.8-.08,3.58,1.65,5,2.61,3.1,2.27,6.21,4.54,9.27,6.87a6.47,6.47,0,0,1,1.43,2.49c.1.26.11,1.73.78,1.36h0v-.07c.43,0,3.31-4.61,4.4-6.51,1-1.62-1.39-1.27-2.22-1.67s-1.76-1.1-2.59-1.59c-1.4-.83-4.57-2.34-2.44-4.07,1.37-.58,3.52-.31,5-.37a28.65,28.65,0,0,0,7.31-1.11c.94-.29,2.24-.91,2.54-2,.43-1.49-1.76-1.15-2.45-1.13-.95,0-7.29-.74-9.48-1.11-1.07-.22-1.33-.13-1.24-1.21a4.74,4.74,0,0,0-1.58-3.76A6,6,0,0,0,40,90.79s-2,1.19-6,7.84c-.64,1-1.25,2-1.86,3C31,103.45,32.61,102.84,33.76,102.8Zm9.77-.64-.15,0,.18,0Zm-5.84-5.7a8,8,0,0,1,1.58-2c1.75-.53,3.84,1.4,5,2.47,1.52,1.37.54,3.69-.54,5.07-.87,0-2-1.14-2.59-1.56-1-.69-2-1.39-3-2C37.58,97.69,37.18,97.27,37.69,96.46Z" transform="translate(0 -11.73)"/><path class="cls-3" d="M321.74,173.15l0,0v0l8.78-6.69,2.08,1.17a7.14,7.14,0,0,0,5.56-.43,6.52,6.52,0,0,0,3.7-5.46c.17-2.26-.71-4.67-1.25-6.83-.43-1.67-.76-3.29-1.22-5-.26-.86-.47-1.31-1.06-1.1h-.06l0,0-.09.07-.19.11h0l-.06,0-.15.13,0,0-.32.54a3.71,3.71,0,0,1-1.34,1.5,14,14,0,0,1-1.62.64c-.75.21-11.24,2.81-13.62,3.43-.95-.05-2.13.14-2.72-.64-.46-.55-2.59-.06-1.83,1.24,1.2,2.1.89,4.9,1.52,7.15.14.51,1.11.15,1.77-.57A5.31,5.31,0,0,1,322,161c1-.33,4.33-1.59,5.19-1.39,2.51.73-1,3.4-1.85,4.21a22.9,22.9,0,0,0-5,6.71c-.43,1-1.12,3.07.52,3.14Zm16.64-11.87-.28.12Zm-1.25-5,.24-.13-.24.13c1.17,0,1.5.16,1.75,1.31s.59,2.63-.41,3.56a9.81,9.81,0,0,1-1.55.61l-1,.26a5.18,5.18,0,0,1-2.78-.09c-1-.38-2.45-3.22-1.77-4.28C333.24,157.21,335.2,156.77,337.13,156.31Zm-5.84,1.27,0,0-.15.09Zm-.25.15h.07l-.1.07Z" transform="translate(0 -11.73)"/><path class="cls-3" d="M57.16,86.51c.21-.08,3.87-2.2,5.25-3,2.63-1.37,5.2-2,5.41,1.09.15,1.81-1.35,3.5-2.54,4.63-2.07,1.9-4.74,2.44-7.37,3a5,5,0,0,0-1.52.51v-.06c-.1.06-.76.56.12,1.08a28.54,28.54,0,0,0,4,1.75c.43.17,1.89,1.06,2.39.83l.63-.44a13.12,13.12,0,0,1,3-3.85A13.06,13.06,0,0,0,70,88a9.15,9.15,0,0,0,.93-5.18,6.2,6.2,0,0,0-6.31-5.5c-2.72,0-9.65,4.06-10.15,4.27-1.38.58-2.79.8-3.76-.47s.27-3.63,1.51-4.27a14.1,14.1,0,0,1,4.48-1c1.23-.17,2.89-.1,4-1,1.29-1.09-2.73-2.65-3.41-3a11.16,11.16,0,0,0-1.82-.67c-.61-.4-1,1.89-1.94,2.42a51.74,51.74,0,0,0-4.35,3.18c-2,2.48-3,6.41-.44,8.86C50.93,87.78,54.51,87.6,57.16,86.51Z" transform="translate(0 -11.73)"/><path class="cls-3" d="M303.38,102.61c.57,2.47.82,5.19-1.32,6.9-4,1.82-5.63-4.83-5.71-7.73-.07-1.88.7-3.65.8-5.56a.77.77,0,0,0-1.22-.77l0,0a45.77,45.77,0,0,0-4.11,4.5c-.66.94-1.66,1.81-.62,2.73a9.24,9.24,0,0,1,3.08,5,7.28,7.28,0,0,0,7.6,5.34,9.21,9.21,0,0,0,5.32-2.72c2.38-2.37,3-5.61,2.43-8.89-.41-2.39-1.67-4.75-1.73-7.2a2.1,2.1,0,0,1,.62-1.5c2.89-1.17,4,3.76,4,5.87a15,15,0,0,1-.52,4.08c-.1.37-.52,1,0,1.08,1.17.12,4.77-3.47,4.95-3.59,1.32-1.06-.87-2.58-1.4-3.61-.36-.74-.53-1.51-.95-2.21a16.3,16.3,0,0,0-.88-1.5c-1.5-2.67-5.29-5.57-8.39-3.76l-.87.59c-.06.06-2.42,2.15-2.57,4.28C301.84,96.8,302.73,99.82,303.38,102.61Z" transform="translate(0 -11.73)"/><path class="cls-3" d="M340.13,195.23c-.06,0-3.48-.13-4.71,1.12-2,2.08-3.52,5.82-4.54,8.79-.82,2.41-2,4.65-4.69,4.75-6-2.31-2.69-8.87-.5-10.67,1.67-1.4,2.59-2.24,3.65-3,0,0,.92-1.1-.13-.8l-7.5,1.45c.65,1.3.34,3.75-.38,5.86-1.18,3.39-.22,7.92,2.73,9.83a8.73,8.73,0,0,0,5.84,1.09c3.31-.43,5-2.79,6.39-5.75,1.74-3.71,1.17-6,3.31-8a2.42,2.42,0,0,1,1.55-.48c3,.8,1.61,5.94.46,7.67-.76,1.13-4.08,3.42-3.77,3.45.12,0-.71,1.14.5,1a52.78,52.78,0,0,0,5.12-1.41c.94-.52.4-1.5.62-2.64.1-.8.56-3.53.63-4.1C345.05,200.33,343.68,195.67,340.13,195.23Z" transform="translate(0 -11.73)"/><path class="cls-3" d="M75.52,54.67a7.92,7.92,0,0,1,4,3.41Q81.38,61,83.32,63.9c1,1.59,2.06,3.18,3.08,4.79A7.53,7.53,0,0,1,86.8,71c0,.57-.34,1.23.34,1.59l.54-.3c.8-.55,1.57-1.3,2.38-1.92,1.25-.94,5.64-4.31,6.2-5.47a9,9,0,0,0,1.4-6.45,15.5,15.5,0,0,0-6.45-10.24c-2.77-1.91-5.93-1.31-8.77.06l.16,0c-1,.47-7.79,4.64-8.23,5.3S75.2,54.57,75.52,54.67Zm7.5-4.4c2-1,3.68.75,4.88,2.35A68.49,68.49,0,0,1,92,59.25c1.19,2,2.57,4.49.43,6.3-1.13.35-1.56-.74-2.17-1.62-1-1.52-1.93-3-2.89-4.53-1.56-2.39-3.1-4.75-4.64-7.16l-.14.1.14-.1C81.79,51.2,82.14,50.92,83,50.27Z" transform="translate(0 -11.73)"/><path class="cls-3" d="M118.13,30a5.57,5.57,0,0,1,2.22,2.7c1.28,4.88,2.6,9.76,3.92,14.64a4.32,4.32,0,0,1,0,2.39c-.1.64-.63,1.17-.25,1.76s3.36-.66,3.9-.88a36.16,36.16,0,0,0,6.3-2.6c6.1-3.79,5.09-11.73,2.38-17.4-1.16-2.39-2.85-4.4-5.42-5-3.08-.71-6.56.52-9.44,1.44A10,10,0,0,0,118,28.86C117.52,29.26,117.7,29.67,118.13,30Zm8-1.44c4.59-1.81,6,7.5,6.63,10.39.56,2.5,1.48,5.78-.78,7.54-1.62.57-1.71-1-2-2.24-.46-1.77-1-3.53-1.49-5.3-.88-2.89-1.73-5.79-2.6-8.68C125.64,29.56,125.62,29,126.13,28.56Z" transform="translate(0 -11.73)"/><path class="cls-3" d="M154.53,22a5.44,5.44,0,0,1,.7,2.1c.43,2,.78,4,1.05,6,.36,2.89.48,5.85.6,8.8,0,.76,0,1.5.08,2.26a3.42,3.42,0,0,1-.63,1.42c-.46.88.9,1.08,1.39,1,3-.38,6.3-.4,9.16-1.49A7.46,7.46,0,0,0,169.07,41a7.55,7.55,0,0,0,1.37-1.12c2.29-2.31,3-5.8,3.05-9a18.75,18.75,0,0,0-2-9,7.17,7.17,0,0,0-5.61-3.31,37.91,37.91,0,0,0-10.25.5c-.53.08-2.74.57-2.19,1.61A15.18,15.18,0,0,0,154.53,22Zm7.25-1.11c5.15-1.61,4.73,9.21,4.74,12,.07,2.49.44,5.4-1.51,7.17-1.43.49-1.64-1.18-1.74-2.36q-.32-2.88-.61-5.8c-.31-3.34-.67-6.68-1-10Zm-.23.06,0,0-.13.18Z" transform="translate(0 -11.73)"/><path class="cls-3" d="M101.12,42.23c.46,2.71.72,5.44,1,8.19.14,2.11.26,4.21.37,6.32a9.48,9.48,0,0,1-.39,3.7c-.26.62-1,1.38-.79,2.11.12.48,1.23,0,1.23,0l.42-.31a23.86,23.86,0,0,1,4.77-2.54c.5-.25,1-.59.92-1.13-.07-.73-1.72-1.44-2.11-2.09s-.76-2.6-.16-3.28A39.79,39.79,0,0,1,111.46,51c.58-.08,2.05,2.09,2,2.38a7,7,0,0,1,.15,1.35c-.07.69.07,1.3.84,1.16s7.18-3.42,7.25-3.45c1.3-.83-1.58-1.56-2-1.92-1-.92-8.8-9.93-11.38-13.53a6.05,6.05,0,0,1-.74-3c0-.54-4.27.9-4.77,1.08a16,16,0,0,0-3.25,1.94l.7,1.57A11.75,11.75,0,0,1,101.12,42.23Zm4.79,11.17.13-.09Zm2.72-5.84c.51.62,1,1.14.3,1.67-.16.09-2.15,1-2.62,1.13a2.06,2.06,0,0,1-1.21,0l-.32-1.87c-.15-1.85-.5-5.8-.5-6C105.42,42.92,108.09,46.92,108.63,47.56Zm-4.18,13.5a22.49,22.49,0,0,0-1.81,1.36A12.28,12.28,0,0,1,104.45,61.06Z" transform="translate(0 -11.73)"/><path class="cls-3" d="M307.69,121c-1.43.14-2.59-.49-3.83-.2l-.75.2c-.62.4.42,1.48.59,1.74a20.64,20.64,0,0,1,1.17,2.71c.3.81,1.1.69,1.73.23l1.44-1.4a12.71,12.71,0,0,1,2.93-1,1.26,1.26,0,0,1,1.64.9c.48,1.12,1,2.23,1.47,3.35a3.52,3.52,0,0,1,.52,2c-.11.58-3.27,2.7-4,2.91l-1.14.15h0a.87.87,0,0,0-.55.93,6.53,6.53,0,0,0,1,2,21.34,21.34,0,0,1,1.15,3.66c.85,2.35,1.89,1.42,1.85,1.42a6.81,6.81,0,0,0,.6-1.21,14.83,14.83,0,0,1,3.24-3.66c3.26-3.27,10.36-10,10.59-10.19s2.78-.32,3-.89l.06,0,.06,0h-.06c1.22-1-2.77-6.16-2.78-7.34,0-.87-.93-.76-.87-.79-.13.07-.87.14-2.15,2l-1.49.39C319,119.87,308.67,120.88,307.69,121Zm.14,3.4v0h0Zm19.5,1.14.07,0,.07-.06.12,0-.26.15Zm-.09.06h0l-.13.06ZM318,126.77l0,0,.19-.11Zm.28-.14h-.05l0,0,.11-.09ZM316,122.39c.68-.21,5.09-.17,5.12-.2s1,.31.36,1.06L318,126.74l-.86,0a8.93,8.93,0,0,1-1-2.6C316,123.51,315.49,122.89,316,122.39Z" transform="translate(0 -11.73)"/><path class="cls-3" d="M21.46,124.61l.75-.4a1.65,1.65,0,0,1,1.42-.32c1.78.17,3.49,1.45,5,2.35,2.71,1.59,5.45,3.18,8.19,4.81h0c.63.47,2.64,1.78,2.91,2.13.39.56.19,1.37,1,1.56l.74-.4h0L48.51,121s-5.08-7.78-6.5-5.14c-.45.83.78,2.42,1,3.19a8.81,8.81,0,0,1,.36,3.61c0,1.12-.17,3.51-1,4.58-.74,0-7.14-3.81-7.45-4-.12-.06.56-2.41,2.1-2.76.68-.17,2-.23,2.32-.65.86-1.19-4.83-3.61-6.3-4-1.25-.32-.42,2.7-.24,3.18a3.63,3.63,0,0,1-.36,3c-1.61-.84-5.91-3.11-6.46-3.37s1.48-4.47,2.51-4.7a16.49,16.49,0,0,0,3.87-1.16c.94-.62-.16-1.34-.76-1.46a31,31,0,0,1-3.2-.54,1.5,1.5,0,0,0-1.24.23c-1.13.84-4.18,8-5,9.9C22,121.46,19.91,124.74,21.46,124.61ZM33,121.68l-.25.25Zm-10.36,2.16-.53.34Z" transform="translate(0 -11.73)"/><path class="cls-3" d="M253.89,46c-1.66,3-7,12.09-8.18,13.09-2.26.3-2.07.88-2.14,1-.92.94,1.87,1.67,2.4,1.93,2.38,1.25,8.95,5.41,9.93,6.1a8.76,8.76,0,0,0,1.7,1.09c.07,0,1.3-.09,5.14-4.73.44-.53,1.51-1.88.05-1.69-1,.11-2.05,1-3,1.24a9.34,9.34,0,0,1-6.28-1c-1.65-.91-1.2-1.72-.49-2.92q1.72-3.12,3.53-6.23a3.84,3.84,0,0,1,1.7,1.22,5.31,5.31,0,0,1,1.41,3.45c.07.93.73,1.45,1.41.73.91-1,1.28-2.75,1.8-3.95.33-.7,1.46-3.07.69-3.25a5.61,5.61,0,0,0-2.21.6L260,52.44c-1-.26-1.6-.23-2.2-1.15,1.15-1.82,2.24-3.74,3.52-5.5,1.23-.09,2.67,1.88,3.21,2.78A13,13,0,0,1,266,52.18a1.29,1.29,0,0,0,1.5.94,1.46,1.46,0,0,0,.86-1c.32-1,1.25-3.67,1.26-4.09s-1.59-1.21-2-1.48c-3.11-2.11-6.15-4.25-9.32-6.27-.42-.29-3.23-1.79-3.15.07a16.3,16.3,0,0,1,.15,1.84A10.17,10.17,0,0,1,253.89,46Zm-8.33,13.25-.41.15.47-.22Z" transform="translate(0 -11.73)"/><path class="cls-3" d="M321.36,186.23c.05,1.25-.13,2.65-.1,3.89,0,.61.08.48.25,1.09l.55.23c.07,0,4.74.69,5.66.87,1.35.29,1.75-.7.89-1.09-3.24-1.48-5.16-5.42-5.39-7.5-.24-1.89.65-2,2-2.06,2.36-.2,4.67-.37,7-.58a3.88,3.88,0,0,1,0,2.14,4.32,4.32,0,0,1-1.9,2.8c-.7.62-.53,1.48.44,1.25a53.37,53.37,0,0,1,5.3-1.28c1.26-.1.58-.85.58-.85-2.34-2.09-1.85-3.14-2-3.49-.38-1,0-.89.95-.93,2.1-.06,4.17-.42,6.3-.37.79,1,.15,4.82-.24,5.79-.45,1.24-1.68,1.82-2.34,2.92,0,0-1.15,1.51.9,1.3l4-1.26c.39-.33,0-1.13,0-1.62-.07-3.83-.34-7.51-.57-11.34a9.5,9.5,0,0,0-.34-2.74c-.27-.31-.64-.41-1.21,0s-.85.86-1.38,1.17c-1.12.64-6.3.14-7.33.86-1.35.93-9.26,1.45-10.73,1-.46-.34-.42-.66-1.24-1l0,0c-1.29-.25-1,2.25-.93,2.86C320.87,180.92,321.24,183.52,321.36,186.23Zm1.2-9.86-.11,0-.3-.26Zm-1.11-1,0,0-.05,0Z" transform="translate(0 -11.73)"/><path class="cls-3" d="M13.28,149.5c.37-.43.26-.37.44-.55a6.19,6.19,0,0,1,1.76-.1c1.08,0,18.16-.61,18.66.23,1.2,1.88,1.91.53,1.94.46a23.81,23.81,0,0,0,1.55-4.34c.12-.4,1.13-2.52.67-2.79s-1.2,0-1.6.06a3.37,3.37,0,0,1-2.42-.76c-4.28-3.19-8.91-6.35-12.6-10.27a5.3,5.3,0,0,1-1-1.33c-.32-.64-.65-2.44-1.31-2.07-1.47.83-2.68,5.71-2.67,6.58,0,.7,1.26,0,1.26,0,1.83-.62,5.14,2.54,6.41,3.5.67.52,5.54,3.66,4.59,4.92-.62.24-9.62-.12-10.6-.18a5.65,5.65,0,0,1-3-1.15c-.61-.39-1,.21-1.09.27v0h0c-.29.22-1.74,6-2,7A.63.63,0,0,0,13.28,149.5Zm4.89-15.1-.2.12ZM13.54,149l0,0-.16.19Z" transform="translate(0 -11.73)"/><path class="cls-3" d="M200.93,60.65s.7-.56.21-.86c-2.57-1.5-4.42-3.93-6.48-6-1-1.08-2-2.15-3.11-3.2l-1.49-1.24A37.83,37.83,0,0,0,193,53.51,36.13,36.13,0,0,0,200.93,60.65Z" transform="translate(0 -11.73)"/><path class="cls-3" d="M188.38,67.55c.67.81,2.22,1.64,3.32,1l1.05-.84c-1.42.54-2.5-.51-3.41-1.51a16,16,0,0,0-3-2.72c-.72-.49-3-1.56-3.74-.44v0a6.58,6.58,0,0,1,1.49,3.39c.08,1.3,0,2.94,1.48,3.23a6.45,6.45,0,0,0,2.79-.7l0,0c-1.78.76-3.09-.26-2.86-2.17A3.26,3.26,0,0,0,184.39,64,10.62,10.62,0,0,1,188.38,67.55Zm3.82.52h0l-.07,0Z" transform="translate(0 -11.73)"/><path class="cls-3" d="M220.65,156.14h0a24.69,24.69,0,0,0,6.1,4.87,9.94,9.94,0,0,0,9.23.14c4.65-2.46,5.69-7.86,6.3-10.62l-.91.52c-.66,2.36-3.13,8.36-10.12,8.68A15.54,15.54,0,0,1,220.65,156.14Zm15.29,2.58Z" transform="translate(0 -11.73)"/><path class="cls-3" d="M212.87,150.93c.09,2.81,2.3,5,4.33,6.6l0,0,.55-.29s-3.88-3.29-3.92-7Z" transform="translate(0 -11.73)"/><path class="cls-3" d="M241.66,183.17c-1.78-2.12-8-3.38-8.29-3.45,2.45.89,5.88,2.05,7.4,4.29,0,0,.07,4.34.19,7.25.18,3.12-.82,6.67-3.33,8.66l1-.62c3.67-2.94,3.67-9,3.27-13.29-.25-2.76,1.59-4.85,3.8-6.36A13.8,13.8,0,0,0,241.66,183.17Z" transform="translate(0 -11.73)"/><path class="cls-3" d="M215.8,178.53a17,17,0,0,1,7.61-1.2l1.07-.65a17.19,17.19,0,0,0-7.62,1.2Z" transform="translate(0 -11.73)"/><path class="cls-3" d="M257.24,230.78l-1.52.84c-.2.16.08.28,0,1.41a4.52,4.52,0,0,1-1.72,3c3.33,0,3.41-3.89,3.2-5.25" transform="translate(0 -11.73)"/><path class="cls-3" d="M260.89,217.72l-1,.61a13.39,13.39,0,0,1-1.08,7.4,10.63,10.63,0,0,1-1.32,1.89l-.61.52a1.14,1.14,0,0,1-.25.2l-.08,0,.73-.41c3.37-2.13,4-6.61,3.65-10.26" transform="translate(0 -11.73)"/><path class="cls-3" d="M250.78,202.9l-1.06.64a13.59,13.59,0,0,1,11.14,11.33C260.83,214.74,259.73,202.84,250.78,202.9Z" transform="translate(0 -11.73)"/><path class="cls-3" d="M256.37,221.86l.4-1.5c-1.95-10-16-10.38-16.26-10.42C247.81,211.8,253.13,214.47,256.37,221.86Z" transform="translate(0 -11.73)"/><path class="cls-3" d="M245.13,202.83c-3.86-.08-6.81-.3-11.58.93a12.77,12.77,0,0,0-1.65.47c-.54.22-2-.21-2.63,0a5,5,0,0,0-2.1,1.52c.6-.34,2.63-1.44,4.56-.76.55.21,3.64-1.61,12.34-1.51Z" transform="translate(0 -11.73)"/><path class="cls-3" d="M174.82,225.51c-4.94-5.8-9.94-11.62-14.88-17.41l-.35.21-.2.14c4.46,6.12,9.39,12,14.3,17.8l.13-.07h0l0,0,.06-.07.37-.21.07-.07v0l.37-.32.13-.08-.13.08v0Z" transform="translate(0 -11.73)"/><path class="cls-3" d="M194.31,217.55c-4.3.1-8.1,0-12.42.17-1,0-4,.44-4.19,0a26.15,26.15,0,0,0-1.72-3.16A135.74,135.74,0,0,0,167,202.14c-2-2.54-5.69-5.31-8.93-3.58-1,.51-1.36,1.55-2.06,2.46a15,15,0,0,1,3.59-2c2.49-.57,5.21,2.3,6.68,4.15a143.54,143.54,0,0,1,8.78,12.31,22.29,22.29,0,0,1,1.57,2.92c.2.48.11.57.58.58,1,0,3.11.55,4.18.51,4.32-.12,8.09-.07,12.42-.17,6.94-.19,14.74.11,21.06-1l.45-1C208.31,217.55,201.37,217.36,194.31,217.55Z" transform="translate(0 -11.73)"/><path class="cls-3" d="M213.36,221.33l-10.62.14-1.06.65c3.54-.08,7.1-.09,10.62-.18Z" transform="translate(0 -11.73)"/><path class="cls-3" d="M194.67,223.52c-4,.07-8,.11-12,.19l-1.06.64c4-.07,8-.11,12-.18Z" transform="translate(0 -11.73)"/><path class="cls-3" d="M176.83,226.45l7.87-.12,1.07-.65-7.87.12Z" transform="translate(0 -11.73)"/><path class="cls-3" d="M178.85,227.6l-1.06.65q20.43.57,41,1.18l1.06-.65C206.15,228.38,192.47,228,178.85,227.6Z" transform="translate(0 -11.73)"/><path class="cls-3" d="M209.25,227.33l8.61-.08,1.06-.66c-2.87,0-5.74.06-8.64.12Z" transform="translate(0 -11.73)"/><path class="cls-3" d="M167,272.9l1-.61c-5.36,2.08-11.69.6-16.76-1.81a62.06,62.06,0,0,1-16.9-12.37c-5-5.14-12.6-18.55-12.6-18.55a52.12,52.12,0,0,0,11.27,18.89,62.38,62.38,0,0,0,17.1,12.63C155.23,273.56,161.65,275,167,272.9Z" transform="translate(0 -11.73)"/><path class="cls-3" d="M202.9,296l-1.8.79c.41.3.93-.05,1.42,1.18a6.34,6.34,0,0,1-.12,4C202.47,301.91,204.6,297.21,202.9,296Z" transform="translate(0 -11.73)"/><path class="cls-3" d="M191.85,331.38s7.79-2.23,3-7.49l-1.67,2.16c-.6.52.31.9.76.5a2.39,2.39,0,0,1,.44,2.43A8.2,8.2,0,0,1,191.85,331.38Z" transform="translate(0 -11.73)"/><path class="cls-3" d="M173.3,288.42c-.72-.71-1.73-.16-2.67-.31-16.39-1.29-28.4-10.34-28.48-10.31a40.64,40.64,0,0,0,22.08,12.56C171.81,292,173.91,289,173.3,288.42Z" transform="translate(0 -11.73)"/><path class="cls-3" d="M147.92,273.08c2.6,1.71,8.29,3.35,10.88,4-5.16-1.61-16.62-8.38-16.68-8.45A58.52,58.52,0,0,0,147.92,273.08Z" transform="translate(0 -11.73)"/><path class="cls-3" d="M189.88,289.85c-1.23,6-7.84,9-7.93,9C188.46,298.88,190.15,293.3,189.88,289.85Z" transform="translate(0 -11.73)"/><path class="cls-3" d="M153,300.55s.87-5.13-4.9-11.92c-9-10.67-18.17-28.08-18.13-28a101.18,101.18,0,0,0,9.77,19.08c2.18,3.31,4.84,6.18,7.18,9.35,2,2.76,4.63,6.08,4.85,9.72-1.13-1.4-8.59-11.11-10.59-14.44-2.44-4.11-4.72-8.3-6.76-12.66,0,0,3.23,8.94,5.53,13C146.81,296.55,152.64,300.31,153,300.55Z" transform="translate(0 -11.73)"/><path class="cls-3" d="M128.79,283.18c.61,3.65.9,7.3,1.37,10.92l.38-.22.13-.09c.31-.32.05-2,.05-2.43-.05-1.21-.07-2.42-.15-3.65a70.27,70.27,0,0,0-.86-7.18,43.8,43.8,0,0,0-4-13.08l-.13.05c-.47.32-1,.58-1.43.9l.18-.12-.18.12a18.15,18.15,0,0,1,2.82,6.25A78.64,78.64,0,0,1,128.79,283.18Z" transform="translate(0 -11.73)"/><path class="cls-3" d="M149.75,301.68A29,29,0,0,0,138.59,299a15.7,15.7,0,0,0-5.55,1.09c-.06,0,9.54-.55,15.27,2.58Z" transform="translate(0 -11.73)"/><path class="cls-3" d="M165.31,299.13l1.07-.65c-2.37.94-12-5.51-12-5.51C155.67,294.23,162.85,300.09,165.31,299.13Z" transform="translate(0 -11.73)"/><path class="cls-3" d="M153.64,228.77c.5.22,2,1.19,2,1.19l.75-.25s-3.48-3.9-6.28-3.84c-1,0-4.83,2-4.89,2A12.38,12.38,0,0,1,153.64,228.77Z" transform="translate(0 -11.73)"/><path class="cls-3" d="M230.89,221.28c.74-.59-7.32-9.58-12.68-11.87l-.42.21c9,5.66,12.6,11.9,12.53,11.93Z" transform="translate(0 -11.73)"/><path class="cls-3" d="M240.47,233.37c1.1-3.46-.42-7.46-2.8-10.22,0-.06,3.3,6,1.78,10.87Z" transform="translate(0 -11.73)"/><path class="cls-3" d="M239.41,219.72a4.7,4.7,0,0,0-2.77-1.89l-.5.3c.06.17,3,3.52,3.29,4.68C239.55,223.22,240.33,221.33,239.41,219.72Z" transform="translate(0 -11.73)"/><path class="cls-3" d="M129.5,71.35a214.27,214.27,0,0,0-21.35,9.37C97.9,85.85,84.28,96.91,78.47,101.48c8.09-6,37.37-26.72,67.69-33.85l.56-.16c6-1.73,6.7-3.21,6.21-3.93-.07.08-10.69,3.57-11.93,3.93-3.89,1.16-7.73,2.48-11.5,3.88" transform="translate(0 -11.73)"/><polyline class="cls-3" points="144.16 57.98 143.88 58.18 144.16 57.98"/><path class="cls-3" d="M81.57,95.17l0,0v0h0c27.05-20.51,59.14-33.87,69-36.42C137.14,62.22,124,67.88,111.7,74.47,106,77.53,82.19,92.41,81.57,95.17Zm58.48-33.12q-4.11,1.5-8.13,3.07c-2.95,1.19-5.82,2.4-8.68,3.7A177.14,177.14,0,0,1,140.05,62.05Z" transform="translate(0 -11.73)"/><polygon class="cls-3" points="97.33 71.13 97.77 70.88 97.96 70.75 97.33 71.13"/><polyline class="cls-3" points="138.96 79.53 138.68 79.69 138.96 79.53"/><path class="cls-3" d="M181.38,163.27c-9.79-1.65-27.71-.75-27.86-.59C162.31,162.84,181.07,163.23,181.38,163.27Z" transform="translate(0 -11.73)"/><path class="cls-3" d="M183.51,158.21l.31,0Z" transform="translate(0 -11.73)"/><path class="cls-3" d="M106.67,158.92a34.38,34.38,0,0,0-7.29.76l-1,.64,0,0-.24.12-.25.16h0a23.7,23.7,0,0,1,2.85-.44l14.14.08c.76,0,1.56.08,2.36.16a26.87,26.87,0,0,0,3,.4,2.74,2.74,0,0,0,.89-.12l.8-.56.28-.16.24-.16-.16.08.16-.08a146.83,146.83,0,0,0-15.66-.92" transform="translate(0 -11.73)"/><path class="cls-3" d="M288.69,239.32l-1,.67c-.24,3.73-3,7.21-5.53,9.62l1-.64c2.57-2.37,5.29-5.89,5.53-9.65" transform="translate(0 -11.73)"/><polygon class="cls-3" points="160.58 322.78 161.18 322.41 161.23 322.34 160.58 322.78"/><path class="cls-3" d="M309.72,215.24c-.68.8,1.56,2.44,3,2.73.05,0-2.52-1.81-2.24-2.65l-.8-.08" transform="translate(0 -11.73)"/><polyline class="cls-3" points="269.66 76.89 269.58 76.89 269.66 76.89"/><path class="cls-3" d="M216.87,60.78c.16-.81-1.32-.73-1.6-1-.37-.48,1.72-.41,1.24-.81a3.66,3.66,0,0,0-3.17-.64,3.12,3.12,0,0,1-1.24,0c-6.73-2.76-7.65-3.6-10-5.77a9.27,9.27,0,0,0-.4-2.4c-1.2-2.92-5.52-4-5.52-4a30.12,30.12,0,0,1,3.08,3.21,10.58,10.58,0,0,1,1.52,4c.6,2.12,3.93,5.36,3.85,5.24-.64-1.12-1.16-2.24-1.68-3.4-.2-.48-.36-1-.56-1.52,3.48,3.28,7.37,7.41,11.81,8.29,0,0,.08-.24.16-.52s.36-.8.88-.4l5.33,3c.16-1.6-4-1.8-3.68-3.24" transform="translate(0 -11.73)"/><path class="cls-3" d="M224.65,69.09l.62-.62a9.45,9.45,0,0,0,1.1-4.38c.11-3.13-1.21-6.21-2.7-8.91s-7.71-10.53-8-10.51l0,0c-.14.8,2,2.66,2.43,3.19a38.46,38.46,0,0,1,4.28,8,24.42,24.42,0,0,1,1.79,8.18A46,46,0,0,0,218.06,56c-.18-.25-1-.19-.55.41,2.82,3.81,4.84,6.83,6.31,10.86v0l-.2,1Zm-.85-.94v0l-.06,0Z" transform="translate(0 -11.73)"/><path class="cls-3" d="M214,69c.43-.25.25-1.85,0-1.82L214,67a24.34,24.34,0,0,1-8.16-4.15,16.72,16.72,0,0,1-1.63-1.63l-.63-.81-.77.07,0,.07v0c2.25,3.12,4.94,6,8.42,7.66C211.75,68.58,213.28,69.41,214,69Zm-.15-2h0Z" transform="translate(0 -11.73)"/><path class="cls-3" d="M206.82,68.47l2.47-.11c-2.38-1.23-6.55-3.81-8-5.76C201.27,62.54,201.7,65,206.82,68.47Z" transform="translate(0 -11.73)"/><path class="cls-3" d="M215.68,66.5l0,0a14,14,0,0,0,1.63.2c.61.07,1.14.46,1.71.55s.52-1,.52-1c-.17-.2-2-1.65-3.55-1.33,0,0-4.74-.9-6.36-2.73h-.25c-.19.47.23,1.06.49,1.35C211.37,65.16,213.73,65.88,215.68,66.5Z" transform="translate(0 -11.73)"/><path class="cls-3" d="M202.53,46.35l-1.05.65a6.07,6.07,0,0,0,3.08.84,5.29,5.29,0,0,0,1-.08l1-.64a5.62,5.62,0,0,1-.92.08,6.55,6.55,0,0,1-3.12-.85" transform="translate(0 -11.73)"/><path class="cls-3" d="M204.77,48.51l-1.07.65c2.16.52,4.68.68,6.38-1A12.38,12.38,0,0,1,204.77,48.51Z" transform="translate(0 -11.73)"/><path class="cls-3" d="M210.37,51.83c-.09,0-.89,1.51-1.69,1.21l-.58,1.19c1.48.45,2.37-.52,3.38-2.41Z" transform="translate(0 -11.73)"/><path class="cls-3" d="M208.45,55.55l.48.33c1.48.07,3-.86,4.14.09.08.1.74.08.47-.82-1.94-2.46-2.07-1-4.06-.25Z" transform="translate(0 -11.73)"/><path class="cls-3" d="M223.45,85.12c1.23.1,2.25,1.32,3.28,2.24l.36-.86c-.38-1-.83-3-2.07-3.14C224,83.25,223.45,85.12,223.45,85.12Z" transform="translate(0 -11.73)"/><path class="cls-3" d="M226.12,72.41A10.17,10.17,0,0,1,224.8,78l-2,1.58c3.37-.75,4.81-4.64,4.82-7.71C227.57,72.09,226.15,71.07,226.12,72.41Z" transform="translate(0 -11.73)"/><path class="cls-3" d="M228.72,69.19a26.75,26.75,0,0,0,2.12-7l-1.07.65C226.64,70.89,228.72,69.19,228.72,69.19Z" transform="translate(0 -11.73)"/><path class="cls-3" d="M172.44,315.15l2.12-1.3a11.33,11.33,0,0,0-6.93,2.87A11,11,0,0,1,172.44,315.15Z" transform="translate(0 -11.73)"/><path class="cls-3" d="M179.62,312.89a6.91,6.91,0,0,0,2.9-.62c.75-.36,4.14-2.71,4.49-3.4l-2,1c-.51.94-2.78,1.72-3.3,1.71Z" transform="translate(0 -11.73)"/><path class="cls-3" d="M184.87,313.52a5.15,5.15,0,0,0,2.29-.25,13,13,0,0,0,3.35-2.15,7.81,7.81,0,0,1-3.54,1.13Z" transform="translate(0 -11.73)"/><path class="cls-3" d="M62.25,133.53c16.67-12.26,34.56-23,53.82-30.25,4.19-1.56,8.36-3.32,12.42-5.3,2.49-1.22,10.94-6.26,12.32-7.83-.47.53-15,8.5-26.84,13-13.5,5.09-25.92,13.1-38.09,20.91-6,3.85-12,7.83-17.82,12.11C59.38,135.16,60.94,134.53,62.25,133.53Z" transform="translate(0 -11.73)"/><path class="cls-3" d="M137.2,88.92c-19.85,7.18-38.86,17.35-56.71,28.72a200.61,200.61,0,0,0-19.81,14.27c1.26-1,3-1.54,4.22-2.56a213.66,213.66,0,0,1,40.95-25.95c8.42-4.18,17-8,25.73-11.38.5-.15,1-.36,1.43-.51C134.5,91,135.71,89.46,137.2,88.92Z" transform="translate(0 -11.73)"/><path class="cls-3" d="M125,117.27c-.26.31-4.07,2.39-5.29,3.16a82.93,82.93,0,0,1-9.81,4.35A111.14,111.14,0,0,0,94.45,132c-8.43,4.5-16.63,9.57-24.63,14.75-3.92,2.53-7.77,5.12-11.56,7.84-.34.22,2.53-1.37,4.28-2.41s3.56-2.06,5.19-3.27c2.46-1.83,16.83-10.85,18.58-11.75a121.46,121.46,0,0,1,14.7-6.33C110.4,127.44,124.36,118,125,117.27Z" transform="translate(0 -11.73)"/><path class="cls-3" d="M115.27,117.31a192.92,192.92,0,0,0-20,8.76c-7.27,3.61-14.3,7.73-21.23,12a189.73,189.73,0,0,0-22,15.14c.41-.34,9-5.16,10.51-6.43,2.66-2.21,5.42-4.29,8.27-6.29,1.35-1,12.69-7.42,18-9.91s10.53-4.87,16-6.82C106.6,123.08,114.8,117.49,115.27,117.31Z" transform="translate(0 -11.73)"/><path class="cls-3" d="M55.25,283.12l0-.19c-.5-2.72-4-7.65-4.07-7.9l-2-3.24-1.52,1.15a12.19,12.19,0,0,1-3.47,1c-2.61.58-12,1.42-14,1.58a7.87,7.87,0,0,1-3.57-.21c-.65-.24-1-1.11-1.71-.87-.47.15-.38.53-.23.84a12.85,12.85,0,0,1,2.57,5.11c.06.16,3.33-2.46,6.1-.95.51,1,3.36,6.27,3.2,7.83-.58,1.36-3.31,3.46-3.31,3.46l.08.58,0-.07,2.26,4.27c.08.2,1,1.56,1.3-.26a16,16,0,0,1,2.68-5.52c.92-.9,1.83-1.81,2.7-2.71l1,1.06c.82,1.12,1.69,1.86.85,4s-3.72,6.07-4.28,7.75c-.32.95,1.74,3.9,1.74,3.9.61.55.75,0,1.08-.74,1.55-3.8,4.66-7.88,4.43-10.11l.21-2.46a12,12,0,0,0,4.94-.31C54.85,288.93,55.72,286,55.25,283.12Zm-19-4.41,1.84-.41c1.77-.24,5.26-.67,5.23-.19a17.37,17.37,0,0,1-2.31,3.68c-.88.58-1.43,1.66-2.33,2.24Zm12.07,7.71a4.16,4.16,0,0,1-4.84-1.51c1.42-1.4,5.66-8.14,6.19-7.37s1.84,2.19,1.91,3.58A7.86,7.86,0,0,1,48.36,286.42Z" transform="translate(0 -11.73)"/><path class="cls-3" d="M60.41,300.21l2,1.87a9.6,9.6,0,0,0,2.19-2.53c.19-.64,1.76-3.79-1.7-5.85,0,0-3.44-3.85-9.16.85,0,0-9.89,6.63-8.28,13.85,0,0,2.32,6.88,8.42,6.06a3.83,3.83,0,0,0,3.35-1.94s.29-1.14,1.31.51a1.27,1.27,0,0,1,0,2.11S57,317.78,54.86,318c0,0-1.63,0-.41,1.69l2.71,3.11s1.55,1.36,1.92-.42a65.94,65.94,0,0,1,11.38-11.91s2.2-2.94,2.4-.65c0,0,.36,4,1.79,2.05a8.07,8.07,0,0,1,1.89-2.22s1.65-.12-.12-1.76L69,300.22s-.76-2-2.35-.08l-1.2,1.27s-1.51,1.38.62,1.67a3.12,3.12,0,0,1,2.57,2.26l-6.81,6.9s-.71,1.4-1.67-.15l-3.6-4.59s-1.38-2-1.92.46a4.51,4.51,0,0,1-3.72,3.6s-1.86.34-2.92-2.27c0,0-.62-1.36,2.2-4.33l8.06-8s1.49-1.81,3.13-.69C61.39,296.22,62.84,297.69,60.41,300.21Z" transform="translate(0 -11.73)"/><path class="cls-3" d="M63.91,326.05s-1.79,1.61-.37,2.83l1.79,1.88s1.21,1.34,1.7-.46a6.43,6.43,0,0,1,1.58-2.84l5.65-5.84s.6-1,.7.31L72.17,334s-.72,3.38,1.61,2.49l11.34-7.91s1.32-1.28.85.94l-4.85,11.79a1.61,1.61,0,0,0,.43,2.18l1.57,1.21s1.64,1.22,1.92-.37l7.18-19.86s1.25-2.82-1.18-3.93c0,0-1.23-.51-3.35,1.07l-8,5.76s-1.24.26-1.14-1.21c0,0,1.66-5.68,2-6.94,0,0,1.76-5.7.41-6.82,0,0-1.49-2.13-2.88-.45Z" transform="translate(0 -11.73)"/><path class="cls-3" d="M97.84,325.82s-1.88-1.86-2.55.64l-5.54,20.11s-1.21,1.79.62,2.6c0,0,1.35.51,1.37,1.06,0,0,1.84.67,2.75-.59l14.77-15.4s1.6-1.27-.35-2.17l-1.84-.93a1.83,1.83,0,0,0-2.82,1.07s-.1,1.6-2.61,3.81l-4.44,4.05s-1,.74-.7-.62l2.92-9.67S101,327.23,97.84,325.82Z" transform="translate(0 -11.73)"/><path class="cls-3" d="M113.65,334.4s-1.76-1.44-3,1L102.05,353s-2.21,2.13-.36,2.62l1.73.93a1.36,1.36,0,0,0,2.15-.56l8.43-17.8s1.69-2.45.37-3.37S113.65,334.4,113.65,334.4Z" transform="translate(0 -11.73)"/><path class="cls-3" d="M144.36,355s1.88-3.47-1-3.24c0,0-3.3-1-3.74,2.88a12.72,12.72,0,0,0,.56,3l1,10.69s-.09,1.56,1.26,1.74c0,0,1.4.6,2.74-1.4l10.34-16.59s1.65-1.46-.62-2.09c0,0-2.27-1.23-3,.07l-7.11,10.65S143.85,362.59,144.36,355Z" transform="translate(0 -11.73)"/><path class="cls-3" d="M166.56,355.48s-.51,1.9-1.91.45c0,0-2-2.17-3.16.26,0,0-1.31.83,3.73,5.8,0,0,4.84,5-1.08,10.5,0,0-3.54,3.82-11.73-1.31a1.8,1.8,0,0,1-1.16-2.61l1.28-2s1.1-2.23,2.65.18c0,0,.57,3.33,4.75,3.2,0,0,4.68-.82-.64-7.87,0,0-4.86-7.8,1.44-9.76,0,0,3.44-.69,5.6.86C166.33,353.17,167.55,353.59,166.56,355.48Z" transform="translate(0 -11.73)"/><path class="cls-3" d="M140.76,345.35a16.77,16.77,0,0,1-4.48-1.4s-3.2-2.16-4.62-.36c0,0-2.18,3.38,0,3.47,0,0,1.7-.89,2.45-.58,0,0,.81-.53.33,1.67l-5.05,14s-.44,2.53-3,.18c0,0-1-1-1.3-4.52,0,0,0-3.44-1.06-4.9a7.39,7.39,0,0,0,3.92-2.88,8.78,8.78,0,0,0,1-6.74,6,6,0,0,0-3.4-3.3l-5.74-2.66s-2.68-1.3-2.12,1.31a8.31,8.31,0,0,1-.88,3.87l-6.85,14.56s-1.41,2,.56,2.62l2.65,1.3s1.45,1.25,1.84-.63a21.21,21.21,0,0,1,1.66-5.38l1.49-3.58s3.25.6,3.63,6.34c0,0-.61,7.24,4.29,8.42,0,0,5.55,2.15,7.38-2.79l4.82-13.58s-.12-1.9,1.11-1.61c0,0,.51-.31,1.36.51,0,0,1.83.94,1.81-1.18A1.74,1.74,0,0,0,140.76,345.35Zm-20.63,4.45c-2,.05-.91-1.74-.91-1.74l2.78-6c.34-1.69,1.31-.74,1.31-.74l1.64,1.22c1.54,1.79-.93,6.2-.93,6.2C123.3,350.43,120.13,349.8,120.13,349.8Z" transform="translate(0 -11.73)"/><path class="cls-3" d="M187.37,371.54s-2.46.56-4.9-5.28a8.31,8.31,0,0,0-2.37-3.11s3.44-.88,3.31-6.12c0,0,.52-4-4.47-4.95l-6.32-.36-1.92.65.33.52-.73,16.9A4,4,0,0,1,170,372s-1.5,2.13.85,2.19l2.54.08s2.13.47,1.9-1.6l-.11-7.95s2.23-2.15,4,3.29c0,0,3.06,8.23,8.8,5.22C188.06,373.21,189.79,372.05,187.37,371.54ZM179,357.82a3.4,3.4,0,0,1-1.86,3.38c-2.06,1.2-1.87-.8-1.87-.8l-.06-5.66c-.12-1.46,2.2-.87,2.2-.87C179.59,353.86,179,357.82,179,357.82Z" transform="translate(0 -11.73)"/><path class="cls-3" d="M192,353.79s-8.12-.83-7.41,9,9.6,7.85,9.6,7.85,4.78-1.75,4.54-9.51C198.52,354.63,192,353.79,192,353.79Zm-.42,14.14s-2.72.87-3-6,2.94-5.81,2.94-5.81,3.4.45,3.37,5.27C194.79,368.62,191.57,367.93,191.57,367.93Z" transform="translate(0 -11.73)"/><path class="cls-3" d="M216.33,361.51a6,6,0,0,0-3.92-4.24s-1.11-.19-.4-1.35c0,0,3.26-6.76-3.2-9.29,0,0-7,1.47-8.16.31a2,2,0,0,1-1.37,1s-1.86.34-.31,2.65c0,0,.92.27,2,9.17a84.42,84.42,0,0,1,.92,9.2s-1.36,3.38,1.09,2.93c0,0,.81-.43,4.36-.79,0,0,5.21-1.35,6-1.75C213.27,369.32,217.43,368.19,216.33,361.51Zm-11.77-5.18-.45-3.66c-.87-4.18,1.51-3.78,1.51-3.78,3.41-1.21,3.19,3.93,3.19,3.93.45,4.6-2.51,4.45-2.51,4.45C203.88,358.23,204.56,356.33,204.56,356.33Zm7.45,8.18c-.21,4.62-4.23,4.47-4.23,4.47-1.73.34-1.64-1.12-1.64-1.12a49.61,49.61,0,0,0-.92-6.4c-.53-2.73,4.19-2.25,4.19-2.25S212.24,359.47,212,364.51Z" transform="translate(0 -11.73)"/><path class="cls-3" d="M242.48,357.19s-1.45-.39-3.72-3.74c0,0-2.58-3.3-4.43-3.51,0,0,3.52-3.49,2.46-7.16,0,0-.28-5.52-7-4l-4.56,1.32s-1.33-.19-.68,2.51c0,0,1.39,13.08.71,16.46,0,0-2.81-4.57-3.74-5.71,0,0-4.07-6.57-3.75-7.93,0,0,.74-3.36-1.08-2,0,0-2.62,1.5-3.64,1.42,0,0-2.11-.31.76,2.4,0,0,1.44.61,4.47,6L224.74,364s1.25,2.38,3,1.22a2.29,2.29,0,0,0,1.81-2.24l-.16-10.24s.18-2.74,3.07-.56c0,0,.7.49,3.7,4.54,0,0,2.83,4.56,6.57,2.65C242.7,359.4,244.61,358.21,242.48,357.19Zm-11.63-7.94c-1.69,1.31-1.41-.38-1.41-.38l-.31-6c-.31-2.51,1.71-1.91,1.71-1.91,2.17-.24,2.51,4,2.51,4A4.43,4.43,0,0,1,230.85,349.25Z" transform="translate(0 -11.73)"/><path class="cls-3" d="M241.79,337s-.72-1.47-2.22-.09l-1,1.92s-.56,2-1.82.12l-.76-1.87s-.84-1.36,1.51-1.82c0,0,7-3.45,7.8-4.07a1.33,1.33,0,0,1,2.35.19s2,1.65-.09,2.48c0,0-3.48-.36-2.34,1.42l7.34,15.2s2.8,1.83,1.35,3.11L247.76,357s-2.14,1.29-2.64-.38c0,0-1-2.51,1.25-3l1.95-.52s1.22-.05.16-2.53l-2-4s-.24-1.44-1.72-.17c0,0-2.65,2.53-3.66,1.11a1.81,1.81,0,0,1,.24-3.15l2.22-1.52s1.22-.22.08-2C243.68,340.93,241.59,337.4,241.79,337Z" transform="translate(0 -11.73)"/><path class="cls-3" d="M260.63,328.64s.16,2.72,2.18.82a3.07,3.07,0,0,0,0-3.76s-1.37-4.09-7.95-1c-5.08,2.24-2.93,8.09-2.93,8.09s.33,4.19,8.79,4.49c0,0,6.41-.31,3.95,5.41,0,0-1.46,2.52-5.07.91,0,0-3.79-2-3.64,2.53,0,0,.31,2.43,6.25,2.34,0,0,8.53-.95,7-9.5,0,0-.37-5.66-9.84-6,0,0-5.8,0-3.61-4.13C255.76,328.82,259.78,325.31,260.63,328.64Z" transform="translate(0 -11.73)"/><path class="cls-3" d="M267.47,320.79s-.44-1.22-1.51-.07a9.06,9.06,0,0,0-1.35,2.12s-.77,1.88-1.78.34l-.78-1.77s-.72-1.14,1.1-2.44l7.16-6s1.21-1.57,2.47.27a1.55,1.55,0,0,1-.09,2.66s-2.23.52-2.62,1.37c0,0-.9.55.12,1.48l8.31,11.92a6.65,6.65,0,0,0,2.57,2c1.62.7.53,1.67,0,2.49l-1.59,1.39s-2,1.81-2.74-.6a11.87,11.87,0,0,0-1.83-4.15Z" transform="translate(0 -11.73)"/><path class="cls-3" d="M277.81,317.52s-1.76-1.14-2.62.48c0,0-2.43,2,.94,3.3l11.67,5.54s.73,1.12,1.94.07l1.42-1.17s1-.57.19-2.95l-6.57-16.67a9.4,9.4,0,0,1-.95-4.39s-.13-2.72-1.76-.62l-2.41,2.34s-1.91,2.35.15,2.94c0,0,1.21-.55,2.08,2.28l5.47,12.92s.5.84-.64.62Z" transform="translate(0 -11.73)"/><path class="cls-3" d="M304.59,300.72s-6.63-8.09-11.63-8a7.28,7.28,0,0,0-6.48,3.21s-.88,1.92-1.58,1.81c0,0-1.92,1.72.74,2.92,0,0,3.06,1.12,11.36,11.48,0,0,.7.08,1.18,2.91,0,0,.54,3.68,2.82.93l5.13-6.59A7.35,7.35,0,0,0,304.59,300.72Zm-3.14,9.58-10.92-10.65c-2.8-1.31-.79-3.34-.79-3.34,1.92-1.9,5.22.88,5.22.88,3.7,2.25,7.24,7.12,7.24,7.12C304.26,307.54,301.45,310.3,301.45,310.3Z" transform="translate(0 -11.73)"/><path class="cls-3" d="M294,285.78s-1.71,1.79,1,2.71L310.19,300s1.21,1.85,2.24.49l1.19-1.27s1.31-1.7-.53-2.51c0,0-1.32-.18-4.51-2.45,0,0-8.65-7.12-10.3-8.06C298.28,286.22,295.89,282.59,294,285.78Z" transform="translate(0 -11.73)"/><path class="cls-3" d="M312.05,262.56s-4-2.12-4.69-.13c0,0-1.2,1.47,1.23,3.45l3.53,3.62s1.55,1.43-.79,1.06l-4.6-1.31a1.93,1.93,0,0,0-2.93,1.09s-1.45,1.27,1.27,4c0,0,9.37,9.4,9.6,10.73,0,0-2.86-.79-13.23-5.36,0,0-2.28-2.79-3.65.47,0,0-1.57,2.13,1.57,3.12l17.49,6.59s2.27.68,3-.9c0,0,1.58-1.6-.27-3.64L310,274.24s-.95-.82.6-.76l8.68,2.52s2.22,0,.9-1.69L313,266.64s13.78,2.55,13.92,4.75c0,0,1.63,1.86,2.1-.56l.71-1.58s1.48-2.51-1.67-2.49" transform="translate(0 -11.73)"/><path class="cls-3" d="M150.33,32.1a3.51,3.51,0,0,1-3.46,3.43,3.34,3.34,0,0,1-3.54-3.36,3.51,3.51,0,0,1,3.48-3.6A3.63,3.63,0,0,1,150.33,32.1Z" transform="translate(0 -11.73)"/><path class="cls-3" d="M203.48,30.45a3.51,3.51,0,0,1-3.43,3.44,3.36,3.36,0,0,1-3.54-3.37A3.47,3.47,0,0,1,200,26.93,3.62,3.62,0,0,1,203.48,30.45Z" transform="translate(0 -11.73)"/><path class="cls-3" d="M316.86,113.32a3.52,3.52,0,0,1-3.44,3.43,3.33,3.33,0,0,1-3.53-3.4,3.44,3.44,0,0,1,3.46-3.56A3.63,3.63,0,0,1,316.86,113.32Z" transform="translate(0 -11.73)"/><path class="cls-3" d="M344.89,221.09l-1,.64c1.52,9.77-1.36,19.59-5.77,28.12a71.35,71.35,0,0,1-3.76,6.25l-.24.28.36,1.36a9.23,9.23,0,0,1-.12,1.48,11.4,11.4,0,0,1-1.61,4l1.09-.64a16.75,16.75,0,0,0,1.48-3.69,5,5,0,0,0,0-2.88c-.12-.4-.16-.24,0-.52a60.76,60.76,0,0,0,3.8-6.29c4.45-8.54,7.29-18.43,5.77-28.16" transform="translate(0 -11.73)"/><polyline class="cls-3" points="313.97 219.17 313.97 219.22 313.97 219.17"/><path class="cls-3" d="M310.8,253.45c-.32-.88-1.28-.72-1,.64a5.77,5.77,0,0,0,4,5.85c1,.76,3.8,0,5.4,1.89l.48-.6-2.4-2.73,0,1.28c.24.36-1.48-1.64-2.76-1.72-.56,0-1.48,0-1.93-.4l-1.68-4.21" transform="translate(0 -11.73)"/><path class="cls-3" d="M313.77,251c.37.54.86,1.06,1.2,1.65a6.4,6.4,0,0,1,.37.8,7.38,7.38,0,0,0-.61-1.48,4.29,4.29,0,0,0-1-1m-.72-7a9.47,9.47,0,0,0-.32,1.4,10,10,0,0,1,.32-1.4" transform="translate(0 -11.73)"/><path class="cls-3" d="M315.34,253.41a7.76,7.76,0,0,1,.19,4.09h0a6.23,6.23,0,0,0-.19-4.09m-2.61-8a13.53,13.53,0,0,1-.93,4.17s1.1.69,2,1.39a3.87,3.87,0,0,1-.28-.47,8,8,0,0,1-.76-5.09" transform="translate(0 -11.73)"/><path class="cls-3" d="M314.09,243.36l-1,.64h0a10,10,0,0,0-.32,1.4,8,8,0,0,0,.76,5.09,3.87,3.87,0,0,0,.28.47,4.29,4.29,0,0,1,1,1,7.38,7.38,0,0,1,.61,1.48,6.23,6.23,0,0,1,.19,4.09l1.08-.64a6.05,6.05,0,0,0,.25-1.64,8.28,8.28,0,0,0-2.09-5.05,6,6,0,0,1-1.14-3.74,10.84,10.84,0,0,1,.46-3.07" transform="translate(0 -11.73)"/><path class="cls-3" d="M319.13,248.77l-1,.64c-.32,1.28-.64,2.6-1,3.92l1-.64c.32-1.32.68-2.64,1-3.92" transform="translate(0 -11.73)"/><path class="cls-3" d="M319.7,242.88c-.61-3.73,1.8-9.09,3.4-11.82-.16.32-3.93,5.49-4.53,8.62a11.28,11.28,0,0,0,.08,3.84l1.05-.64" transform="translate(0 -11.73)"/><path class="cls-3" d="M316,234.68a0,0,0,0,0,0,0h0l0,0m4.91-6.82-1,.64c-1.9,1.64-3.66,5.7-3.87,6.18a23.07,23.07,0,0,1,4.91-6.82" transform="translate(0 -11.73)"/><path class="cls-3" d="M319.81,244.8l-1,.64a3.61,3.61,0,0,0-1.36,2.45l.56-.32.52-.32a3.55,3.55,0,0,1,1.32-2.45" transform="translate(0 -11.73)"/><path class="cls-3" d="M35.47,237.15c.69,2.95,2,7-2.22,9.29a1.52,1.52,0,0,1,.67,1.69c0,.18,0,.92,1.26,1.65,0,0,0-2.53.84-3.18,3.33-2.54,1-9,.36-9.66C35.44,236,35.45,237,35.47,237.15Z" transform="translate(0 -11.73)"/><path class="cls-3" d="M52.14,246.14c-.46,0-3-1.1-2.85,1.79l1.86-.32.81-.71Z" transform="translate(0 -11.73)"/><path class="cls-3" d="M47.16,252.66l.92.44c.06,0,.1-2.39.12-3.06l-.68-.08-.39.72S46.39,252.13,47.16,252.66Z" transform="translate(0 -11.73)"/><path class="cls-3" d="M41.81,257.49l1.44-1.18c-.15.07,1,.63,1.6.5s1.83-2.19,2.41-2.94l-1.07.65S41.83,253.78,41.81,257.49Z" transform="translate(0 -11.73)"/><path class="cls-3" d="M56.27,242.37a5,5,0,0,0-2.08-.05,4.12,4.12,0,0,0-1.73,1.88c.71.24,2.51-.81,1.61-.38A3.46,3.46,0,0,0,56.27,242.37Z" transform="translate(0 -11.73)"/><path class="cls-3" d="M55,235.7c-.4.19-.54-.62-1.54.09s-.36,1-.74,1.13a2.69,2.69,0,0,0,1.83-.27Z" transform="translate(0 -11.73)"/><path class="cls-3" d="M46.55,228.62c-1.07,1.28-4.09.39-4.64.72a5.36,5.36,0,0,0-2.24,3.21l1-.2c.23-.54,1.13-2.2,1.93-2.09,4.31.54,4.72-1.33,5-2.28Z" transform="translate(0 -11.73)"/><path class="cls-3" d="M55.5,224.22c-.08.71-.15,1.44-.26,2.14l.56-.31.5-.34c.09-.7.16-1.43.26-2.12l-.53.3Z" transform="translate(0 -11.73)"/><path class="cls-3" d="M57.26,230.17c.33.8-.4,1.68-1,2.14l1.06-.64c.57-.46,1.27-1.35.94-2.15Z" transform="translate(0 -11.73)"/><path class="cls-3" d="M350.35,193.71l-1.18,0c0,.84,0,1.67,0,2.51,0,99.37-76.12,180.49-171.07,181.73-.76,0-1.52,0-2.29,0C81.15,378,3.7,298.09,2.38,198.39c0-.83,0-1.66,0-2.49,0-99.41,76.13-180.51,171.07-181.8h2.24c94.68,0,172.17,79.88,173.5,179.64l1.18,0h1.18c-1.33-101-79.8-182-175.86-182H173.4C77.08,13.07,0,95.28,0,195.9c0,.84,0,1.68,0,2.53,1.33,100.9,79.75,181.91,175.8,181.92h2.32c96.33-1.29,173.41-83.53,173.4-184.1,0-.85,0-1.69,0-2.54Z" transform="translate(0 -11.73)"/><path class="cls-3" d="M22.12,248.46v0Z" transform="translate(0 -11.73)"/><path class="cls-3" d="M350.25,214.48c-1.51,3.35-6.77,6.49-9.88,7.43a58.69,58.69,0,0,1-8.37,2.28c-6.58,1-11.42,2.49-16.72,6.71.22-.16-.44,0-.9,0,1-4,1.72-8.07,2.29-12.1a157,157,0,0,0-.79-48.81c0-.16-6-28.76-13.74-42.56-12.07-21.55-24.87-41.27-48-56.56-.8-.53,34,26.92,51,66.59-.56-.68-5.51-4.89-9.57-1.34-.57.5-2.17,4.33.74,6.3l.74.21,0,0a1.82,1.82,0,0,0,.53,2.12l-.06.1a30,30,0,0,0-4.84,10.16c-.55,2.23-.54,4.74,1.17,6.41s7.66,2.38,7.66,2.38,2.56,27.4,2.59,38.38l-11.51,10.14c-.42-.84-.3-6.52-.31-8.94,0-13.94-1-27.78-4.54-41.3a72.19,72.19,0,0,0-6.36-16.09s4.2,12.19,5.67,18.09c3.36,13.44,4.19,27.21,4.2,41,0,2.58.26,5.53.27,8.11,0,.48,0,.93.54.68s12.07-10.86,12.26-10.92c.44,1.51,1,2.67,2.59,2.87a10,10,0,0,0,3.23-.32c1.73-.4,3.78-.87,5.81.58,0,.44,0,.9-.09,1.34-1.64-.67-4,1.15-4.52.86,2.17,1.26,3.16-.6,4.4.19-.06.89-.15,1.75-.23,2.64-.76-.59-1.52-1.28-1.52-1.28a13.4,13.4,0,0,0,1.42,2.46c-.13,1.06-.27,2-.39,3-.15-.13-2.47-1.21-2.75-2.87l-.92-.09c-.77.87,1.93,3.3,3.59,3.59-.22,1.78-.4,3-.65,4.54-1.77.55-4.57,1.24-5.16.47.43-.15,2.19-1.55,1.82-1.49-1.24.22-3.37-1.45-3.37-1.45,0,.73.31,1.47.39,2.14a36.51,36.51,0,0,0-4.19-.35,3.65,3.65,0,0,0-2.34,1c-1.77,2.22-8.17,9-8.89,9.24-.45-.48-.25-1.25-.05-1.85,1.84-5.7-.56-8.69-.56-8.69.23,3.41-.76,6.65-2.87,14.38-.57,2.19,5.29-1.6,7-3.6,6-7.12,7.62-5.64,7.68-5.71a144.5,144.5,0,0,1-4.16,22.47c-.89,3.59-1.72,7.3-2.92,10.76a11,11,0,0,0-.84,3.3c-.06,2.84,3.6,1.9,5.71,1.07a146.61,146.61,0,0,1-33,44.39c-3.15,2.9-6.36,5.64-9.56,8.21-3.66-2,.27-12.76,1.31-15.44,2.62-7,6.21-13.68,9.33-20.48,1.55-3.37,2.86-6.88,4.55-10.17,4-7.79,4.07-9.8,4-9.86a7.15,7.15,0,0,0,3.49-1.43c-.14.8-4.63,11.87-6.71,16.73-2,4.69-4.15,9.32-6.34,13.93-1.61,3.42-3.59,6.6-5.33,10a46.24,46.24,0,0,0-4.71,15.17c0-.25.82,1.08,1.06-.64,1.12-8.84,6.63-15.74,10.38-23.54a203.87,203.87,0,0,0,11.74-29,23,23,0,0,0,1.24-5.81c.05-.92.67-1.3,1.28-2,1-1.18,2-2.67,1.84-4.27l-1,.62a5.67,5.67,0,0,1-1.47,3.73c-.29.47-1.71,1.59-1.64,2.14a8.51,8.51,0,0,1-.18,2.23c-.13,0-3.07,2-4.29,1.36-.67-.36-1-1-1.58-1.37-1.94-1.17-5-.3-6.72.77-2.71,1.73-7.68,5.8-8.22,2.62,1.13.29,2.86-.8,4.89-2.6,3.81-3.39,11.55-4.42,11.55-4.42.23-.54,2.31-1.39,2.31-1.39-2.47-.28-9.67,1.63-16.74,6.68a16.85,16.85,0,0,0,4.39-6.61c-.31.22,7.6-4.64,10.63-7.7,1.85-1.88,1.57-.13,2.71-2.56,3.52-7.51,5.32-18.48,6.18-26.86a129.39,129.39,0,0,0-.57-32.9c-1.85-12-4.69-24.21-9.88-35.14.43-.21.87-.45,1.31-.7s.77-1.8-.22-1.37c-7,3-19.39,3.67-22.29,3.28-1.75-.19-3.45-.29-4.72-1.72-.47-.56-3.78-7.94-3.5-9.27C264,138.55,270.87,132.48,272,129c.72-2.16-5.11-12.24-6-13.57l0,0c-8.18-26.13,3.18-26.68,3.56-26.8-.78.09-13.6-1.61-6.28,22.75a91.63,91.63,0,0,0-13.54-16.52,25.43,25.43,0,0,1,1.63,3.23,120.64,120.64,0,0,0-11.79-4.51c-.44-.9-.88-1.83-1.35-2.81,8.06,3.75,9.94,1,10.31.88-2.08.62-9.89-2.33-11.74-4.09C235.73,85,233.7,79.9,233.52,80,235,84.29,236,89.19,238,93.3a5.26,5.26,0,0,1-1.35-.46c-.95-.43-3.53-3.68-4.44-4.15-.56-.27.63,2.25.08,2-.25-.13-3.4-4.19-4-4.46s.23,2.66-.38,2.43c-2.33-1-7.56-3-7.53-6.47.69-.21,1.36-2.83,1.83-4.23,1.71-1,3.2-5.71,3.28-6.73L225,71a15.25,15.25,0,0,1-1.79,2.64,4.09,4.09,0,0,0-.32-2.56c-.77-1.19-6.33-2.82-7-3l-1.37,0c-.17,0,3.5,1.35,5.14,2.22,3,1.57,1.47,6.22,1.41,6.48a10.33,10.33,0,0,0-3-3A20.63,20.63,0,0,0,215.52,72c-.44-.19-.6.47-.64.41.92.75,2.91,2.71,3.09,2.87a10.47,10.47,0,0,1,2.25,3.4,13.76,13.76,0,0,1-.55,2.19,23,23,0,0,0-2.8-4.27,23.1,23.1,0,0,0-7.7-5.35c-4.65-2-10.38-8.23-11.87-10.8,2.38,4.11,5.19,8.71,9.4,10.74,2.38,1.15,5.86,3,5.84,3.1-1,3.69-5.11,6.37-6.55,6a6.3,6.3,0,0,0,5.48-1.41,11.21,11.21,0,0,0,2.67-3.38c2.48,2.13,5,7,5,7-.28,1.24,1.4,3.64,2.13,4.36,3.45,3.27,8.23,4.88,12.56,6.41,3.33,1.19,15.59,5.14,18.16,6.44.17.32,9.57,12.56,12.83,19.43.86,1.84,4.29,11.3,4.1,11.48-5.91,5.74-20.86,5.63-20.86,5.63s-1.71-3.64-2.8-3.06c0,0-2.8-4.6-3.25-3.84,0,0,2.93,5.9,2.26,11.76,0,0,.48,3.37,1.22,1.94,0,0,.05-3.41,1.48-1.47a38.6,38.6,0,0,1,1.58,4c.25,1.6,3.33,3.37,3.36,3.37a44.53,44.53,0,0,0,4.8,12.23c.64,1.93,5,11,6.17,13.77s1.35,5.83,1.82,8.75c.73,4.74,3.31,30.09,3.31,30.09a78.31,78.31,0,0,1-2.66,19.67,20.38,20.38,0,0,1-15.17,13.92,29.45,29.45,0,0,1-5.26.33,17.48,17.48,0,0,0,7.5-9.95c-.07.28-6.18,8.86-11.08,10a36.69,36.69,0,0,0,6.71-8.2c.9-1.38,1.61-3.05,2.38-4.51,1.39-2.62.72-7.26.65-7.52a13,13,0,0,1,1.85,4.84c0-.17.74,1.13.84-.25.15-2.8-2.09-6.17-3.75-8.31-1.53-1.92-2.94-4-4.6-5.81a22.31,22.31,0,0,0-12.13-7c-.77-.11-5.43-3.38-7.34-4.23a24.49,24.49,0,0,0-7.25-2,4.29,4.29,0,0,1-1.68-.84c-4-2.61-10.56-.11-10.56,0-2.42-1.75-10.19-5.66-10.19-5.69a42.44,42.44,0,0,1,3.85-9.61c1.48-2.93,5.39-9.65,5.71-10.15,0-.1-3-5.94-3.52-10.07a15.86,15.86,0,0,0,7.75-3.51c-.31.23-12.16,6.06-17.6-2.45l-1.46-.89a4.14,4.14,0,0,1-1-1.59,6.15,6.15,0,0,1,.2-2.51c.08-.39,1.77-8.35,2-10.3.62-4-2.07-8-5.11-10.23a18.5,18.5,0,0,1,3.91,7.26c-4.58.7-8.66,3.87-12.83,5.59-5.36,2.24-8.12,4.22-13.22,5.92-3.28,1.12-17.53,5-28.42,1.73-.22-.07-3.58.3-6-1.93-1.29-1.2-1.32-3.31-1.34-5-.07-2.24,3.38-11.28,5.06-14.79,5.11-11,12.42-20.95,20.2-30.09A77.76,77.76,0,0,0,159,98.67,48.7,48.7,0,0,1,167.14,93c4.23-3.1,6.86-3.55,12.6-4.57,0,0,.67,3.27,2.34,3.41,6.15.48,10.74,2.38,12.44,3.62h0c1.9,2.28,3.07,11.2,3.17,12.51.05.53-1,2.44-2.38-.21.24-.88-.64-7.57-3.49-10.86a10.47,10.47,0,0,0-4.33-2A9.44,9.44,0,0,1,192,99.15a22.11,22.11,0,0,1,2.51,8.13c0,.39-1.77,3.92-3.61-2.83-.66-2.37-2.33-5.47-4.69-5.81-1.35-.19-5.27-1.59-12.2,2.15,2.17-1.2,13.67-4.61,15.26,3.37a17.32,17.32,0,0,1-5.79.89c-2.81.1-5.48-.57-8.34,0-2.05.43-4.26.39-5.93,3.86-2.08,4.26-4.21,8.59-6.08,13-.65,1.48-1.14,2.87-1.65,4.42a102.58,102.58,0,0,1-5,10.08,78.78,78.78,0,0,1-4.83,7.67l1,.22a84.26,84.26,0,0,0,5.68-8.78c3.68-1.83,9.94-6,12.57-9.32,5.8-7.28,12.19-12.08,20.22-17.86-.29.19,1.26,1.47,2.68,1.24l1.07-.65c-.07,0,3.5,3.72,3.88-1.15.22-2.74-1.44-9-2.16-10.39.55.59,2.61,2.2,3.19,11.24a5.61,5.61,0,0,1,2.67,3.57c-.05-.19.56-2.67-1.45-4-.73-.46-.66-1.32-.64-2.06a13.59,13.59,0,0,0-1.51-7,14.64,14.64,0,0,0-8.75-7A34.15,34.15,0,0,0,183.36,91c-1.7-.06-2.2-1.44-2.23-3.13,0-.76,1.16-1,1-1.9s-.88-2.21-1-3.34h.06c.71.15,1.36.36,2,.56a4.51,4.51,0,0,0,1.91.39c.07,0,.24.2.51-.3s-1.31-1.21-2.07-1.42a4.8,4.8,0,0,1-2.24-.85c-.82-.78-.57-2.5-.2-3.46l1.39.9a2.71,2.71,0,0,0,3.41-2,2.94,2.94,0,0,1-4.6.15,2.79,2.79,0,0,0-1.26.93c-2.67.67-2.2-2.22-1.9-3.36.8-2.93,2.21-5.67,3.09-8.59a17.32,17.32,0,0,0,.17-4.39c.08-3.6,3.08-9.79,3.43-10.45A2.19,2.19,0,0,1,186,50c.34,0,2-.35,1.85-1.18l-3.76-.24L183,49.3l0,0a9.48,9.48,0,0,1,1.63.39c-.66.65-3.27,6.18-3.81,7.92,0-2.1.93-7,.9-7.54s-.4-1.09-.52-1.7c-.25-1,.78-1.62,1.56-2.17a34,34,0,0,1,14.47-5.64c14.06-2,24.63,3.2,27.75,5.62,5,3.92,7.54,9.79,8.09,16-1.3,2.81-2.61,6.93-3.76,9.68-4.25,10.34,1.87,12.61,1.9,12.68-2.6-1.88-1.75-9-.81-12.82a49.28,49.28,0,0,1,2.76-8.13,79.16,79.16,0,0,0-.19,9.27c.28,3.71.08,10.51,10.77,12.06,1.37.47-.69-4.11-.69-4.11-1.16-3.4-3.28-3-3.28-3a12.66,12.66,0,0,1-5.32-2.07,27.45,27.45,0,0,1-.53-3.87c1.11-.3,5,1.58,5,1.58,3.9,1.84,1.91-2.73,1.91-2.73,0-3.26-2.28-2.42-2.28-2.42-1.84.09-3.82-1.43-4.55-2a41.59,41.59,0,0,0,.06-4.46c.91-.43,3,.7,3,.7,2.8,1.79,2-1.45,2-1.45-.14-2.13-2.93-2.26-2.93-2.26a4.69,4.69,0,0,1-2.71-1.43,19.32,19.32,0,0,0-.84-2.77,6.31,6.31,0,0,0,6.35.39c.07,0,3.34-1.8,6.24-9,.68-1.67,3.23-7,3.24-7.68s2.54-.26,2-1.65c-.06-.57-2.94-1.56-3.29-1.79-1.69-.94-2.16-.47-2.23-.43l.07,0c-.47.49-.18,1.11-.05,2,.23,1.28-3.2,10.13-5,13-.82,1.31-1.75,2.48-3.35,2.19-1.41-.26-3.42-1.55-3-3.29.91-2.4,4-10.44,4.67-12.08,1-2.53,1.94-3,2-3.05h0c1.62-1.09-1.53-2-2.18-2.26-1.28-.57-2.45-1.17-3.73-1.78a2.33,2.33,0,0,0-1.91,0c-.57.56.09,1.63.13,2.36s-1.94,5.9-2.67,7.85c-.82,2.15-2.55,6.9-2.64,7.15a21.52,21.52,0,0,0-4.08-2.86l.38-.37a6.46,6.46,0,0,0-1.18-7.18c3.45-1.1,4.67-5.86,2.69-8.9s-5.68-3.2-8.74-3.9c-1.23-.28-2.46-.63-3.69-1-.59-.17-2.27-.72-2.43,0l0,0,.1,1a7.6,7.6,0,0,1,.15,5c-.88,3.46-1.76,6.89-2.62,10.32A32.26,32.26,0,0,0,194,40c-.25-.55.28-3.24.4-4.07.06-.44.39-1.69-.16-1.92-1-.46-2.82,2-3.39,2.67a8.28,8.28,0,0,1-4.22,2.84c-.77.27-2.71.93-2.71-.51,0-.82.05-6.47,0-8.45a3.46,3.46,0,0,1,4.22,1.82c.22.38,1.39.15,1.61-.26a19.48,19.48,0,0,0,.06-5.33c-.12-.54-1.74.38-1.87.48-1.05.42-3.4.59-4.07-.29,0-2,0-4.08,0-6.15a14.24,14.24,0,0,1,2.39.08,6.65,6.65,0,0,1,4,1.65c.86.72,1.36,1.7,2.29,1.52.07,0,1.24-.35.61-2.63A6.81,6.81,0,0,0,192,18.68c-.36-.36-8.28-.73-9.89-.83s-4.61-.75-5.84.56c-.49.48-.11,1,.28,1.33.82.69.94,1.9,1.11,2.9.22,1.68.28,13.18.27,13.68a41,41,0,0,1-1.32,5.91c-.28.92,9.89.2,11.75-.08a47,47,0,0,0-4.43,2.35c-1.44.86-4,1.93-3.82,4.32,0,1,.67,1.57.53,2.6-.22,1.27-.63,2.5-.77,3.81a24.83,24.83,0,0,0,.14,5.84c-.23,1.53.05,2.94-.07,4.52-.09,1-2,5.2-2.39,6.34-.49,1.58-1.87,3.79-.73,5.37,1,1.4,3.13.88,3.22.81s-1.69,3.09.13,4.18a7.83,7.83,0,0,0-.37,4.59A46.13,46.13,0,0,0,172,88.65a36.15,36.15,0,0,0-6.86,4c-.39.25-5.65,2.3-10.27,10.9-.29.54-2.88,3.61-3.74,4.71-8.51,10.46-16.33,22.16-20.92,35-1.21,3.38-3.28,9.16-1,12.32-7.93-.33-15.85-.61-23.78-.78-4.24-.1-8.51-.16-12.77-.1a18.79,18.79,0,0,0-5.55,1.24,102.83,102.83,0,0,1,12-.27c4.31.07,28,.76,29,.92a6.94,6.94,0,0,0,2.22,0c1.75,1.66,4.27,1.15,6.44,1.77a40.09,40.09,0,0,0,13.68,1.2c4.58-.27,8.35-.64,11.51-.95,7.55.17,15.41.7,21.6-.38-5.8.07-11.57-.09-17.36-.23.59-.11,21.84-10.35,25.13-11a7.38,7.38,0,0,1-.31,2,68.13,68.13,0,0,0-1.61,8.63c-.05.74-.5,1.4-.51,2.14,0,2.1,2,2.6,3.13,3.93,3.64,4.26,7.62,4.73,9.17,4.73.06,2.18,2.9,9.64,3.66,10.65.06.06-6.82,10.44-9.3,18.84-.53-.21-3.12-.8-3.2-1.25a16.16,16.16,0,0,0-3.3-6.56c-1-1.26-2.06-2.85-3.7-3l-3.57-.37q-13.8-1.46-27.59-2.84c-3.73-.38-7.87-1-11.64-1.42l-1.09.87c1.41,1.69,2.88,3.45,4.31,5.24-2.46.07-5.07-.08-7.48,0l-.44.51-.07,0a37.93,37.93,0,0,1,2.9,3.13c-3.9.58-7,1-9,4.71a20,20,0,0,1-4.76,6.65c-1.38,1.25-3.14,2.59-2.92,5.14.11,1,1.09,1.12,2.11,1l0,0-.09.06c-.42.44-9.26,8.56-11,16.73-1.12,5.43,1.54,16.33,2,18.48.51,2.6,2.61,20,2.15,26.92-.07.51.79,18.52,1.15,22,.2,2,1.19,2,1.19,2a22.86,22.86,0,0,1,6.25,2,4.19,4.19,0,0,1,2.12,2.13c.26.89,0,1.91.31,2.84,1.07,3.34,6.28,1.45,8.61,1.31,3.9-.26,7.85,1,11.77,1.13.79,0,6.88-.46,7.83.3.43.29.69.82,1.11,1.14,2,1.45,4.61-.53,4.81-.72a41.65,41.65,0,0,0,3.83-4.92c.06,1.81,2.25,4.64,2,5.24-.11.2-5.4,5.3-5.91,7.62-.2.89-.41,1.81-.65,2.7-14.88-.69-53.34-2-57.63-2.09-2.16-.08-1,1.47-1,1.47,14.8.72,52.57,1.18,58.43,1.38a10.73,10.73,0,0,0-.58,4c0,.29-5.62,5.65-6.58,12.21-.33,2.22,1.43,2.38,1.68,2.33-.29.15-3.8,2.78-11.24,4.21-27.28-6-51.75-20.53-71.36-40.95a141.09,141.09,0,0,1-25.45-37A20.36,20.36,0,0,1,42,267c0-1.27-1-2.64,1.1-3.2,1.55-.4,1.35-2.86,1.55-3.25A21,21,0,0,1,48,258.4v0c.68-.51,3.78-4.17,4.82-5.14a7.28,7.28,0,0,0,2-3.9c.21-1.18.65-1.53,2.39-1.84s2.52-2.91,2.6-4c.08-.92-.74-2.37-1-3.28a8.83,8.83,0,0,1,.49-6c1-1.7,2.91-3.32.08-6.58-.85-1-.37-3-.34-4.41.11-2-1.25-5.16-8-.12-.45.35-1.05-.56-1.72-.45S47,222.51,45.43,226a1.7,1.7,0,0,1-2.21.94c-.7-.27-1.61.34-2.33.71a9.09,9.09,0,0,1-2.66.71c-.35-1.41-.63-2.79-.91-4.24-6-31.36-2.3-63.77,11.33-92.46C57.47,113.1,67.8,95.53,83.2,82.28l-1.06.65c-23.76,20.46-38.49,49-45.56,80.06a158.11,158.11,0,0,0-.24,68.63l.13.54c1.32-.64,4.72-3.85,5.09-3.84,5,.3,4.58-1.91,5.36-3.1.65-1,1.34-1.57,2.5-1.36a3.68,3.68,0,0,0,2.48-.22c1.49-.61,3.47-2.13,5-1.88,1.23.16.78,1.27.33,3.62a2.36,2.36,0,0,0,1.08,2.93c1.76.9,1.2,2.43.47,3.93-.49,1-1.46,1.7-1.85,2.71-.52,1.49.5,2.78.51,5.08,0,.46.89,3,.86,3.38-.09,1.27-2.33,2.55-4.19,2.39-.5-.05-1,1.41-1,1.85a12.67,12.67,0,0,1-.5,2.93C52,252,50.48,253.11,49.23,254a6,6,0,0,0-1.85,3c.18.47-2.26,1.5-3.68,1.63-2.35.24-1.24,3.36-1.44,3.8a10,10,0,0,1-1.76,1.37c-1,.64-1.48,2.55-1.69,3.88-.42.06-.93.11-1.45.17-.32-3.69,1-7.61,2-11A104.39,104.39,0,0,1,45,243.29a163.32,163.32,0,0,1,8.58-16c-.19.31-.33-.66-1.19.29-3.2,5.13-14.67,26-15.16,28.76-.08.41-1.13.46-1.77.34a5.07,5.07,0,0,1-.08-3.58c-.13.29-2.82,1.95-.49,5.32,0,1.29-.9,4.9.93,6,.34,1.08,1,3.75-.69,3.59a11.6,11.6,0,0,1-2.64-6.36c-.06-.76.7-1.5.2-2.64-.61-1.36-1.55-2.36-1-3.72.23-.63,1.78-3.79.69-4.89-2.66-2.68-1.38-5-.23-6.92.58-.86,2.62-1.3,1.91-4-.23-.86-.43-1.35-.67-2.18-.63-2.41,1.26-3.95,3.13-5.16-.89-1.36-3.24-2.78-4.55-3.42-4.58-2.18-9.2-2.92-14.06-3.73-5.71-.93-12.33-3.38-15.65-8.52l.64,3.59c1.73,2.74,3.53,3.39,6.25,4.92a20.06,20.06,0,0,0,5.63,2.24c-1.68.79-3.55,1.6-3.3,4.17,0,.22.24,3.1.23,3.76a12.38,12.38,0,0,1-1,4.54c-.75,1.84.9,4.63,1.78,6.23a17.27,17.27,0,0,1-.48,2.52c-.39,3.94,4,9,6.75,10.65a9.68,9.68,0,0,0,3.59,4.25c.93.63,2.83,1.34,2.44,2.65a46.23,46.23,0,0,1-13.11-9.46l-.5,2.16c17.76,21.18,36.07,7.61,37.39,6.33A147.21,147.21,0,0,0,95.36,319c14.94,10.39,31.36,18.87,48.93,22.87.38,2.3,1.57,4.73,4,5.15a3.92,3.92,0,0,0,2.72-.44c1.11,5.64,9.65-1.35,10.86-2.5-.26.28-9.44,5.41-9.88,2.65-.17-.87.59-1.42,1.06-1.73,1.22-.86,3.8-2.88,3.91-3a58.27,58.27,0,0,0-6.05,3.69c-1.71.24-3.13.15-3.93-1.53a3.74,3.74,0,0,1-.06-2.62,51.58,51.58,0,0,0,5.15-1.26c8.43-2.32,18.79-11.6,19.73-15.28,9.36-3.81,21.77-5.55,22.34-6.13-6.94.19-16.6,1.89-28.13,7.29-3.43,1.6-6.69,3.56-5.85,4.9.71,1.13,2.36-.65,2.36-.65,1-1.83,7-4.41,7-4.44a33.15,33.15,0,0,1-7.77,7.81c-.38.17-2.41,2.17-3.67.26-1.57-2.39,4.59-10.52,5.25-11.15,1-.86,1-1.05,1-2.4a14.7,14.7,0,0,1,1.25-3.6,9.7,9.7,0,0,0,1.24-2.95,16.13,16.13,0,0,1,3.19-5.22c1.58-1.81,1.93-3.6,1.63-4.24-.79-1.77-2.32-3.91-2-6-.63-1.29-1.89.19-2.39.87-.92,1.22-3.7,5.76-5.27,6.62-.56.12-1.09-.51-1.34-1s.52-.88.5-1.27l-5.34.07a20.52,20.52,0,0,1-7.77-.52,41.59,41.59,0,0,0-7.69-1.12,20.49,20.49,0,0,0-6.25.36c-.55.11-2.85.26-2.76-3.6,0-1.22-2.24-2-3.1-2.46-1.94-1-5.58-1.37-5.36-1.52h0c-.94-.1-1-1.82-1.13-2.49a174.46,174.46,0,0,1-.27-19.66c.82-9.53-1.2-18.89-2.68-28.27-.64-4.26-1.88-8.85-1.75-13.18.37-14.64,14.39-22.21,14.54-22.3,3.94-.08,12.21-.17,12.37-.17-1.83.61-19.65,7-17,22.72,1.18,6.86,4.45,13.32,8,19.13,4,6.42,14.32,17.46,14.38,17.43-6.21-7.41-12.7-18.48-15.79-24.16-11.21-20.37-.28-26.45,2.55-28.85,4.66-3.95,13.5-6,13.61-6,.54,4.16,6.25,2.82,6.25,2.82,1,1.1,17.52,19.22,17.92,19.23,9.92.27,5.36.66,26.2,1.26,2,0,23.23.29,24.54-1.55.85-1.23.07-4.48-.44-5.6a36.56,36.56,0,0,0-4.23-7q-2.25-3-4.76-5.85c3.33,1.86,5.91,5.62,8.12,8.42l.06-.71c-4.57-9.1-10.34-10.25-10.37-10.25h0c-.82-.81-1.6-1.66-2.42-2.48a25.1,25.1,0,0,0-2.52-2.32c4.41-2.23,8.71.1,9.42.18a23.49,23.49,0,0,1,6.92,1.85c1.91.77,6.84,4.1,7.69,4.41a29.19,29.19,0,0,1,11.21,7c1.64,1.66,3.52,3.36,5.05,5.15a13.67,13.67,0,0,1-1.4,14.91c-1.16,1.53-6.82,10.46-15,9.35-2.84.1-5.71.13-8.57.13-9.23,0-36.08-2-40.15-3.08a16.69,16.69,0,0,1-9.66-6.1c-2.61-3.29-5.74-6-8.26-9.35a58.5,58.5,0,0,0-8.58-8.75s6.18,7.93,7.82,9.88c2.41,2.86,8,11,11.44,13.53l0,1.18a34.13,34.13,0,0,1-15.34-13c-.37-.52-1-.46-.58.51l2.83,4.2-4.66-3.25s-3.93-1.38-3.7,1.45,11.48,5.52,15.55,8.57c-.8.07-10.23-3.45-14.78-1.22-3.22,1.52-16.22-.4-16.29-.33,10.43,4.25,15.64,2,23.44,1.77,2.17-.08,4,.95,6.18,1.19a4.44,4.44,0,0,0,2.73-.58,12.78,12.78,0,0,0,2.08,1.23l-.07.06.07,0-.07,0c4.45,5.53,7.64,12.84,6.53,20.15-1,6.37-7.05,10.44-12.9,11.27,0,0,8.21,1.59,12.41-4.61,4.59-6.76,1.05-17.56,1-17.65a18.47,18.47,0,0,1,4.77,15.58,47.74,47.74,0,0,1-3.09,11.52,12.48,12.48,0,0,1-1.25,2.3l-.66.87c.12-.06,5.31-3.2,6.5-15.51.08.64.15,1.27.2,1.91.44,5.11-.05,13.21,1.81,16.18,0,0-.93-8,.06-14,1,1.08,6.53,6.87,6.82,7.46,1.09,2.38-4.83,9.7-4.87,11.48,0,1.08,1.18,8.16,1.58,10.53a68,68,0,0,0,3.47,13.34c1.46,3.71,4.27,6.75,5.11,10.69a9.2,9.2,0,0,1-3.62,9.57c-.38.3-14,8.19-14.68,8.77-3.46,3.06-9.84,3.93-9.88,4s-2.75,2.15-4.48,1.84c-2.71-.4.34-3,1.35-3.95l-.07,0c-.05,0-4.6,3.41-6.6,3.08-1.73-.29-1.58-1.37-.48-2.18,1.63-1.18,3.58-2.92,3.58-2.92-.16.07-5,3.24-6.16,3.57-2.48.7-2.93-1.19-2.93-1.19-.26.35-.16,3.09,3.29,2.17.87,2.19,3.6,1.94,5.79.56-.39,4.87,7.54.58,7.82.39a17.07,17.07,0,0,0,10.26-4.81l11.23-1.6c1,1.42,3,.61,3.7.38,0,1.62,2,2.3,3.25,2.75,4.83,1.64,9.3-3.56,11.5-7.21l.36-.57c25.42-7.51,49.23-23.46,67-43.64a151.4,151.4,0,0,0,32.56-63c1.09-.74,2-1.39,2.78-1.91-.49.84-.37,1.54-1.2,3.25-.66,1.55.63.27.63.27,1.69-2.32,8.84-8,9.52-8.31-.81,2,.59,6.15.31,9-.32,3.56-1.43,6.63-2.49,10.06,0,0,.06.18-3.55,9.9-.92,2.6,2.22,6.15,2.44,6.31s.35-3.84,1.8-5.08a4.87,4.87,0,0,1-.13-2.21c.19-.89,8.56-21,13.24-28.39,2.53-3.08,4.28-3.71,6.71-4.79,1.49,9.69-1.71,19.19-6.11,27.71-1.13,2.11-3.13,3.8-4.54,5.74l-1.12-.21a3.6,3.6,0,0,1,1.46-2.46,4.19,4.19,0,0,0-2.43,2.43l-.59,0c.71-1.71,2.05-6.24,3.55-8.43a47.62,47.62,0,0,0,4.48-7.77c1.5-3.59,2.8-8.25,3.95-12-.12.24-.51-.79-1.12.67-1.71,3.85-5.41,7.85-6.31,12.41.07-.3.69,1,1.06-.66.69-3.05,1.14-2.31,1.68-1.87l-.67,1.57a35.87,35.87,0,0,1-2.46,5.15c-.94,1.32-3.76,5.59-4.56,6.92-.7,1.13-1.1,2.46-1.72,3.63-1.42,2.87-4.61,5.22-4.7,8.32,0,0,.58.14,1-.63,1.73-2.82,3.33-5.18,5.45-6.66v0a6.92,6.92,0,0,1,3.76,1s1.65,1.72-2,6a26,26,0,0,1-3.73-.53c-2.7-.51-2.37,1.16-2.37,1.16,5,1,10.84,1.3,14.21-3.13l-.29-1a8.23,8.23,0,0,1-5.82,3.47c.71-1.1,1.88-2.47,2.18-3.71.24-.95-.51-1.73,0-2.59.62-1.07,2.23-4.48,3.39-6.66,4.4-8.45,7-18.76,5.55-28.4a9.59,9.59,0,0,0,4.83-4.59Zm-53.88-54.27,1.38-1,1,.86c.71,2.69,1.74,1.7,2.36,2.52-2.17-.05-9-.57-7.44-7.87.72-3.42,4.33-9.38,4.33-9.38,1,.22,1.86-.3,2.79-.41,1.12-.07,2.42-.24,3.17.68,0,.06-.48-2.32-4.61-1.2-.34.1-1.86.51-1.38-1.46.61-.08,1.38,0,1.71-.82a2.13,2.13,0,0,1,3.32-1c-.69-1.51-1.5-1.85-2.59-1.18s-1,1.83-2.33,2c-2.2.24-3.23-2.46-1.72-4.86s5.48-1,6.76-.07a15.73,15.73,0,0,1,2.88,2.43c2,4.23,6.93,21.12,8.36,29.77l-1,.26c-1.59-6.39-6.22-12.11-12.25-14.34,3.32,1.69,10.21,8.67,11.26,14.77-.6-1.36-10.3-15.68-16.39-11.86C294.41,159.05,296.38,160.18,296.37,160.21Zm14.77,44.27c-1.09.2-5.78,1.68-6.12-2.41.08-10.95-2.53-39.49-3.2-42.76a20,20,0,0,1,2.76,2.17,26.76,26.76,0,0,1,4.8,5.14c.42,4.86,1.47,11.94,1.74,16.76C311.42,188.69,312.21,196.11,311.14,204.48Zm2-.31c.84-6.84-1.14-31.48-1.12-31.27,0,0,1.72-1,3,.07a157.41,157.41,0,0,1,1.16,31.3A10.34,10.34,0,0,0,313.11,204.17ZM300,226.05l1.09-.61Zm-109.66-119c-8.17,4.18-15.13,12.14-20.95,19.24-2.34,2.92-5.89,4.34-9.32,5.89.29-.6,10.31-23.41,11.2-24.41a10,10,0,0,1,4.41-1.4c2.69,0,5.36,0,8-.11,1.77-.09,4.21-.67,6.43-.07h0l.33.83Zm51.9-25.51s1.43,3.85-2.22,1.51c0,0-2,.6-3.06-4.16C236.94,78.9,241.59,79.49,242.22,81.55Zm-7-12.22c.46-.15,3.12,1.06,3.12,1.06,2.53.31,1.79,1.73,1.79,1.73-.76.88-4-.82-4-.82C233.8,70.7,235.26,69.33,235.26,69.33Zm4.35-35.67.1,0-.13.06Zm-.33.19.19-.09-.35.27Zm-24-2.52c.25-1.4.53-2.83.77-4.23l-.1.06.1-.06.29-.6A4,4,0,0,1,220,28.21c1,2.12-.05,5.45-2.46,5.72-.83.08-2.12,0-2.51-1ZM214,36.27l.1-.09.2-.51a6.08,6.08,0,0,1,3.44.95c1.39,1,.47,3.29-.1,4.71-1.42-.5-2.83-.92-4.21-1.33a25.32,25.32,0,0,1,.67-3.82Zm-22-.77-1,1.22C191.26,36.31,191.61,35.9,192,35.5ZM29.58,229.74a15.36,15.36,0,0,1,2,.87c1.06.54,2.5.83,3.35,1.64-.19,0-5.1-1-2.25,7.38l.11.74C31.72,238.33,28.52,231.72,29.58,229.74Zm-8,1.73a5.55,5.55,0,0,1,1.08-3.16c.34,0,3.78.6,5.07.91a19.64,19.64,0,0,0,5,11.37c-.24,1.41-1.94,2.52-2.4,4-.66,2.37-2.33,5.39-2.13,7.57-.82-.56-1.6-1.21-2.31-1.75l-.36-.26.06-.09c-.65-2.85,3.06-4.75,3.37-8.29-.29-.07-.48,0-1.05.66-1.4,1.72-3.24,4.33-3.44,6.8a9.64,9.64,0,0,1-2.44-3.27c-.1-1.19-.25-2.66-.38-4.06.54-1.68,2.17-3.27,3.37-4.36-.41.33-2.26.49-3.54,2.13,0-.5,0-.9-.06-1.29A54.63,54.63,0,0,1,21.62,231.47ZM18.25,252c-1.48-.93-1.93-3.72-1.86-3.94a4.51,4.51,0,0,0,.17-2,15.64,15.64,0,0,0-.85-4,3.46,3.46,0,0,1-.37-2.3,5.56,5.56,0,0,1,.66-2.39c.78-1.48.61-5.34.54-5.38-.5-.61-1,.46-1,.65a18.44,18.44,0,0,1-.56,5.22,7.74,7.74,0,0,0-.82,2.28c-.18,1.24.66,2.19.88,3.27a12.06,12.06,0,0,1-.18,5.11c0,.28,2.55,6,3.31,7.73l0,0,.08,1.21c-6.81-6.34-4.47-11.07-4.71-11.47a20.33,20.33,0,0,1-.87-2.6,10.25,10.25,0,0,1,.12-5.83c.44-1.44,1-3,.62-4.49-1-4,2-4.61,3.61-5.3.36.06,3,.34,3.81.43-.45,1.2-.12,2.7-.26,4-.25,2.29-1.07,12.13.28,15.61C19.69,248.27,18,250.1,18.25,252Zm10.06,15.32c-.18-3.68-5.56-4.95-5.8-5.15a9.73,9.73,0,0,1-2.23-2.56c-1.19-1.95-.74-4-1-6.18a4.29,4.29,0,0,1,2.88-4.92l0,0,.13,0a33.42,33.42,0,0,0,2.6,2.59,23.94,23.94,0,0,0,3.77,2.57c.44,1,.76.88.84,2.69s-.83,3.92-.68,5.77a9.68,9.68,0,0,0,2.54,5.81A20.47,20.47,0,0,1,28.31,267.27ZM168.68,299.1l.09,0-.13,0Zm-47-3.37h0l-.07.06Zm9.84-86.64.07,0ZM222.05,225c2.18,4.93.57,4.86.22,5.27s-4.23.58-4.23.58c-4.24-.13-8.31.19-12.53.07L175.15,230c-.43,0-.65.06-.92-.24l-7.51-8.12c-3.06-3.25-6.06-6.54-9.08-9.8-.43-.47-.84-1.3-1.52-1.12-5.28,1.41-5.56-3.38-5.73-3.36-7,.07-12.52-.63-20.38.22-1.17.14-2.93,1-4,.9-2.06-.3,0-2.53.88-3.37,1.69-1.71,4.17-3.7,4.87-6.15a9.67,9.67,0,0,1,2.52-3.38,15.87,15.87,0,0,0,3.39,1.51c1.62.33,10.38,5.18,12.64,6.73.14.1-8.32-6.7-11.46-7.35a6.38,6.38,0,0,1-3.54-1.7c1.87-1.46,6.27-1.61,6.18-1.74.24.26,6.46,5.35,8.32,8a78.63,78.63,0,0,0-6.25-7.67c-1.58-1.47-3.16-2.95-4.79-4.35,2.31-.05,4.49.19,6.84.09a43.81,43.81,0,0,1,5.27,6.43c1.23,1.94,3,4.5,3,6.92,0,.36-1.09,2-1,3.14.14,2,1.53,2,2,3.59l1-.65c-.44-1.51-2-1.51-2-3.3,0-1.21.87-2.15,1-3.26.33-2.36-1.79-5.25-2.93-7.09a101.57,101.57,0,0,0-8.25-11.45c13.65,1.39,27.28,3.07,41,4.24,3,.23,6.47,8.13,6.62,9.44A90.25,90.25,0,0,0,169.1,195c-2.85,0-7.27-.33-10,.35-3.2.76-3.44,4.78-3.36,4.49,0,0,1-3.87,6.83-3.81,3.31.05,8.43,0,11.43.17,11.43.47,23.72,1.65,32.85,9.22C210.36,208.39,220.62,221.78,222.05,225ZM167.71,349l-.75.53Zm12.4-1.13a24.38,24.38,0,0,0,2.39-1.79A9.34,9.34,0,0,1,180.11,347.86Zm85.57-86.23a24.19,24.19,0,0,0,4.12-3.3c3.91-2.46,6.23.14,6.47.28-.09,0-1.14,1.32-1.64,1.91a32.45,32.45,0,0,1-8.81,7.65c-3.18,1.78-16.13-2.86-11.51-9.86a4.77,4.77,0,0,1,1.8-.75,6.26,6.26,0,0,0-.66,2.11,2,2,0,0,0,2.69,2.39C259,262.4,262.72,263.66,265.68,261.63Zm4.77-40.2c-.48-5.11-.58-10.29-1-15.4s-1-10.33-1.58-15.48c-.3-2.21-.31-4.44-.44-6.72s-1-9.59-1.8-11.39c1,1,3.36,2.79,3.45,2.89-2.17-2.29-8.92-10.22-11.35-15.26a45.68,45.68,0,0,1-4.48-10.95c7.84,1.43,18.24-.23,22.23-2,5.55,11.67,8.46,24.85,10.28,37.69a114.88,114.88,0,0,1,.83,17.69,133.4,133.4,0,0,1-2.14,21.21c-1,6-2.59,12.09-5.59,17.49a9.78,9.78,0,0,1-2.59,3c-2.58,2.25-5.18,3.21-8.39,6l-1.43.32c-1.12.7-1.73,3.24-2.38,4.44a24,24,0,0,1-5.36,5.85c-1,.74-2.36.68-2.22-1.77,0-1,8.75-14.45,9.62-15.75a10.08,10.08,0,0,1,2.65-3,3.73,3.73,0,0,0,1.42-1.18C271.36,236.77,270.7,224.05,270.45,221.43ZM267.75,241l.64-.44Zm-88.23,4.59a3.22,3.22,0,0,1-1.94.82A5.22,5.22,0,0,0,179.52,245.55Zm6.34,99.36-.48.34.38-.28.14-.1Zm29.73-12.17c-.36,3.5-4.13,8.46-4.71,9.21-3.93,5-9.43,5-10,2.9-.38-1.25,2.74-3.82,3.54-5.05a9.56,9.56,0,0,0,1.25-5.43c-.17,2.19-2.13,4.58-3.46,6.14s-2.47,3.2-3.16,3.57a1.6,1.6,0,0,1-2.28-.27c-.89-1.71.27-2.2,0-2,4.34-2.18,5.53-4.48,5.64-6.9a10.24,10.24,0,0,1-5.18,5.88,2.5,2.5,0,0,0-1.67,1.44c-3.08-1.7-.47-2.83,3.1-5a22.88,22.88,0,0,0,2.77-2.65c2.66-3,2-7.36.73-10.9-.7-2-1.43-3.89-2-6-1.63-5.59-3-11.71-5.95-16.75a9.76,9.76,0,0,1-1.38-3.51c-.13-1.13-.2-4.83.27-5.54.48-.86,3.3-5.46,4.64-6.51l0,0c2.65,5,11.28,5.39,13.33,6.07a9.41,9.41,0,0,1,6.55,9.72c-.1,2.27-1.13,4.31-1.73,6.44-1.24,4.44-3.58,8.73-3.31,13.43C212.78,323.56,215.81,330.48,215.59,332.74ZM217,337.2c-.62.22-.73-.27-.75-.72,3.63-5.24-1-14.34-.91-15.45.08-2.43,1.64-12.06,2.18-14.45.69-3.11,2.16-5.82,1.55-9.08s-3.33-5.66-6.11-7c-1.41-.71-11.11-1.56-14.15-6.92,0-.07.88-.75-4.07-6-2-2.15-4-4.37-6-6.52a34.33,34.33,0,0,0-9.4-19.16v0h0a32.69,32.69,0,0,0-3.07-5.39,5.14,5.14,0,0,0,3.58-1.07,36.17,36.17,0,0,0,5.43,1.24c4.69.68,9.35,1.36,14.1,1.89,5,.58,9.91,1.13,14.9,1.51s9.88.35,14.81.45c4.63.07,9.29.09,14-.19,3.74-.27,7.76-.31,11.33-1.57,7.78-2.69,12.48-13.86,13.73-13,.85.57.23,3.39-.63,4-.42.4-3.49,4-10.92,17.05a4.94,4.94,0,0,0-4.33,5.1c-.1,6.19,11.12,10,13.42,8.92,0,0,4-1.5,9.47-6.81a38.6,38.6,0,0,0-3.05,6.6c-1.12,3.46-10.42,22.75-13.42,30.4a17.87,17.87,0,0,0-6.2-7.48,17.5,17.5,0,0,0-4.65-1.92c-1.72-.59-4.69-1.42-5.58-3.3-.09-.18-.18-19.16-.79-25.48-.19-2.13-1.32-6.18-2.67-7.84-.12-.17,2.63,8.45,1.4,14-.44,2,.43,9.33.79,15.53a25.55,25.55,0,0,0-7.58-3.62c-2.61-.82-2.7-5-2.72-7.21,0-2.37.4-4.65.58-7a37.25,37.25,0,0,0-1.11-11.7c0,.09.25,8.47.05,12.35-.11,2.36-.56,4.64-.59,7s.19,6.19,2.75,7.24,6.34,2.57,8.67,4.45a16.14,16.14,0,0,1,.07,2.59c-.23,2.57,8,4.89,9.52,5.62a16.42,16.42,0,0,1,7.54,8.19s-3.95,10.24-.47,13.68A126.4,126.4,0,0,1,217,337.2Zm84.32-76.5c-1.94,1.13-4.25,2.2-4.48,0-.07-1,3.07-10.3,4-14.05,2.08-8.35,5.22-25.56,5.62-25.45a10.71,10.71,0,0,0,3.54.74C309.33,230.64,304.16,254.67,301.35,260.7Zm9.91-25.24c-2.13,8.48-3.93,10.61-3.71,9.61,1.71-8.57,4.1-13,4.83-21.77.63-.18,1.15-.36,1.5-.48A123.66,123.66,0,0,1,311.26,235.46Zm10.48,24.28c-2.47-2.82,1.57-10.19,1.63-10.35a7.37,7.37,0,0,0,1.68-.47l.22-.1.15,0A18.35,18.35,0,0,0,321.74,259.74Zm11-27.81c-.7,2.24-1.64,3-3.19,6.4a1.33,1.33,0,0,1-.29-1.09c-.18-3,1.9-8.22,2.57-9.4,0,0-2.7,1-6.32,20.2l-1.86.53c.37-.92.66-1.84,1-2.78a46.89,46.89,0,0,0,2.26-10.49c.73-8.34,6.12-10.65,6.46-10.41C333.92,226.71,333.29,230.09,332.73,231.93Z" transform="translate(0 -11.73)"/></g></g></g></svg>